<?xml version="1.0" encoding="UTF-8"?>
<svg width="21px" height="21px" viewBox="0 0 21 21" version="1.1" xmlns="http://www.w3.org/2000/svg" xmlns:xlink="http://www.w3.org/1999/xlink">
    <!-- Generator: Sketch 42 (36781) - http://www.bohemiancoding.com/sketch -->
    <title>linkedin</title>
    <desc>Created with Sketch.</desc>
    <defs></defs>
    <g stroke="none" stroke-width="1" fill="none" fill-rule="evenodd">
        <path d="M3.17411093,17.3660695 L6.26786461,17.3660695 L6.26786461,8.07141554 L3.17411093,8.07141554 L3.17411093,17.3660695 Z M6.46875771,5.2053407 C6.45536484,4.29462533 5.79911406,3.59819593 4.74107708,3.59819593 C3.6830401,3.59819593 2.9866107,4.29462533 2.9866107,5.2053407 C2.9866107,6.08927032 3.65625436,6.81248547 4.70089846,6.81248547 L4.71429133,6.81248547 C5.79911406,6.81248547 6.46875771,6.08927032 6.46875771,5.2053407 Z M11.0625132,9.38162433 L11.0625132,9.42409573 L11.0357274,9.42409573 C11.0444946,9.41006833 11.0534211,9.39590702 11.0625132,9.38162433 L11.0625132,9.38162433 Z M11.0625132,9.38162433 L11.0625132,8.07141554 L7.9687595,8.07141554 C7.9687595,8.07141554 8.00893812,8.9419523 7.9687595,17.3660695 L11.0625132,17.3660695 L11.0625132,12.1696347 C11.0625132,11.9017773 11.0759061,11.6205269 11.1562633,11.4196338 C11.3839421,10.870526 11.8928713,10.2946325 12.7500152,10.2946325 C13.8616237,10.2946325 14.3035885,11.1383835 14.3035885,12.3973136 L14.3035885,17.3660695 L17.3973422,17.3660695 L17.3973422,12.035706 C17.3973422,9.18302401 15.8705546,7.85712957 13.8348379,7.85712957 C12.2103591,7.85712957 11.4700997,8.74134905 11.0625132,9.38162433 L11.0625132,9.38162433 Z M20.5714531,3.99998212 L20.5714531,16.8571403 C20.5714531,18.9866071 18.8437725,20.7142878 16.7143056,20.7142878 L3.85714746,20.7142878 C1.72768063,20.7142878 0,18.9866071 0,16.8571403 L0,3.99998212 C0,1.87051529 1.72768063,0.142834663 3.85714746,0.142834663 L16.7143056,0.142834663 C18.8437725,0.142834663 20.5714531,1.87051529 20.5714531,3.99998212 Z" fill="#FFFFFF"></path>
    </g>
</svg>