<?xml version="1.0" encoding="UTF-8"?>
<svg width="120px" height="120px" viewBox="0 0 120 120" version="1.1" xmlns="http://www.w3.org/2000/svg" xmlns:xlink="http://www.w3.org/1999/xlink">
    <!-- Generator: Sketch 42 (36781) - http://www.bohemiancoding.com/sketch -->
    <title>section-2</title>
    <desc>Created with Sketch.</desc>
    <defs></defs>
    <g id="Page-1" stroke="none" stroke-width="1" fill="none" fill-rule="evenodd">
        <g id="section-2" fill-rule="nonzero" fill="#FFFFFF">
            <g id="Group">
                <path d="M69.1453333,102.693333 C67.0093333,92.1786667 62.0253333,89.5013333 53.5946667,85.316 C49.2946667,90.8133333 42.6173333,94.368 35.112,94.368 C27.6066667,94.368 20.9293333,90.8133333 16.6293333,85.316 C8.20266667,89.5026667 3.21466667,92.18 1.08266667,102.693333 C0.248,106.805333 0.170666667,109.34 0.170666667,109.34 C-0.00533333333,115.2 4.64666667,120 10.5133333,120 L59.7133333,120 C65.58,120 70.216,115.202667 70.0186667,109.341333 C70.0186667,109.341333 69.8933333,105.648 68.8653333,101.422667 L69.1453333,102.693333 Z" id="Shape"></path>
                <path d="M89.2813333,0 C72.4093333,0 58.7293333,11.0186667 58.7293333,24.612 C58.7293333,28.9893333 60.1506667,33.1026667 62.6413333,36.664 C64.4746667,39.2853333 68.6826667,42.672 68.6826667,42.672 C69.264,43.14 69.676,44.132 69.6,44.8746667 C69.6,44.8746667 69.136,49.344 68.392,52.0093333 C67.1026667,56.62 66.28,58.232 66.28,58.232 C65.7693333,59.2293333 66.2173333,59.7426667 67.272,59.3693333 C67.272,59.3693333 70.4853333,58.2346667 75.9893333,54.8133333 C78.68,53.1413333 82.7346667,49.7213333 82.7346667,49.7213333 C83.3093333,49.2413333 84.3813333,48.9106667 85.124,48.9853333 C85.124,48.9853333 87.3533333,49.22 89.284,49.22 C106.157333,49.22 119.836,38.2013333 119.836,24.6133333 C119.833333,11.0186667 106.154667,0 89.2813333,0 Z M89.28,40.3 C87.3146667,40.3 85.7173333,38.7026667 85.7173333,36.74 C85.7173333,34.7706667 87.3146667,33.168 89.28,33.168 C91.248,33.168 92.8453333,34.7706667 92.8453333,36.74 C92.8453333,38.7013333 91.248,40.3 89.28,40.3 Z M99.2626667,19.8786667 C98.536,21.008 97.536,22.3533333 95.5386667,23.908 C93.6146667,25.3853333 92.936,26.1973333 92.7026667,26.6186667 C92.5973333,26.8133333 92.436,27.2106667 92.3146667,27.9213333 C92.276,28.164 92.2386667,28.4346667 92.2146667,28.7253333 L92.0693333,30.26 L86.3106667,30.272 L86.388,28.496 C86.3986667,28.2506667 86.4253333,27.7746667 86.4893333,27.336 C86.688,25.964 87.1546667,24.7533333 87.8706667,23.7346667 C88.548,22.7693333 89.8706667,21.5426667 91.9146667,19.9826667 C93.4613333,18.8026667 94.064,18.1226667 94.3026667,17.7626667 C94.6106667,17.2906667 94.7666667,16.7786667 94.7666667,16.2306667 C94.7666667,14.9706667 94.3053333,13.972 93.3946667,13.2586667 C92.4466667,12.5173333 91.1373333,12.1413333 89.504,12.1413333 C88.0506667,12.1413333 86.8213333,12.5253333 85.8533333,13.2853333 C84.8306667,14.0826667 84.112,15.1813333 83.7706667,16.4706667 L83.3986667,17.8813333 L77.7693333,17.276 L78.152,15.4413333 C78.6906667,12.8546667 79.9066667,10.86 81.768,9.512 C84.1853333,7.75466667 86.7853333,6.86533333 89.4906667,6.86533333 C92.4773333,6.86533333 94.9226667,7.632 97.1853333,9.28133333 C99.2586667,10.796 100.448,13.2466667 100.448,16.0026667 C100.448,17.3373333 100.06,18.6053333 99.2626667,19.8786667 Z" id="Shape"></path>
                <circle id="Oval" cx="35.1146667" cy="70.892" r="18.808"></circle>
            </g>
        </g>
    </g>
</svg>