<?xml version="1.0" encoding="UTF-8"?>
<svg width="120px" height="104px" viewBox="0 0 120 104" version="1.1" xmlns="http://www.w3.org/2000/svg" xmlns:xlink="http://www.w3.org/1999/xlink">
    <!-- Generator: Sketch 42 (36781) - http://www.bohemiancoding.com/sketch -->
    <title>section-3</title>
    <desc>Created with Sketch.</desc>
    <defs></defs>
    <g id="Page-1" stroke="none" stroke-width="1" fill="none" fill-rule="evenodd">
        <g id="section-3" fill-rule="nonzero" fill="#000000">
            <path d="M117.262136,99.0291262 L96.6990291,99.0291262 L96.6990291,29.8834951 C96.6990291,28.6019417 95.6504854,27.3786408 94.368932,27.3786408 L71.592233,27.3786408 L80.1553398,15.7281553 C80.9708738,16.0194175 81.9029126,16.2524272 82.8349515,16.2524272 C85.1650485,16.2524272 87.2038835,15.3203883 88.6601942,13.7475728 L97.8640777,18.3495146 C97.8058252,18.815534 97.7475728,19.2815534 97.7475728,19.7475728 C97.7475728,24.1747573 101.359223,27.7864078 105.786408,27.7864078 C110.213592,27.7864078 113.825243,24.1747573 113.825243,19.7475728 C113.825243,15.3203883 110.213592,11.7087379 105.786408,11.7087379 C103.456311,11.7087379 101.417476,12.6990291 99.961165,14.2718447 L90.7572816,9.66990291 C90.815534,9.2038835 90.8737864,8.73786408 90.8737864,8.27184466 C90.8737864,3.84466019 87.2621359,0.233009709 82.8349515,0.233009709 C78.407767,0.233009709 74.7961165,3.84466019 74.7961165,8.27184466 C74.7961165,10.0776699 75.4368932,11.7669903 76.4271845,13.1067961 L62.5631068,32.0970874 C61.7475728,31.8058252 60.815534,31.631068 59.8834951,31.631068 C58.3106796,31.631068 56.8543689,32.0970874 55.5728155,32.9126214 L44.2718447,23.0679612 C44.7378641,22.0776699 44.9708738,20.9126214 44.9708738,19.7475728 C44.9708738,15.3203883 41.3592233,11.7087379 36.9320388,11.7087379 C32.5048544,11.7087379 28.8932039,15.3203883 28.8932039,19.7475728 C28.8932039,22.1941748 30,24.3495146 31.6893204,25.8058252 L15.0291262,63.2621359 C14.6796117,63.2038835 14.3300971,63.2038835 13.9805825,63.2038835 C9.55339806,63.2038835 5.94174757,66.815534 5.94174757,71.2427184 C5.94174757,75.6699029 9.55339806,79.2815534 13.9805825,79.2815534 C18.407767,79.2815534 22.0194175,75.6699029 22.0194175,71.2427184 C22.0194175,68.7961165 20.9126214,66.6407767 19.223301,65.184466 L35.8834951,27.7281553 C36.2330097,27.7864078 36.5825243,27.7864078 36.9320388,27.7864078 C38.5048544,27.7864078 39.961165,27.3203883 41.2427184,26.5048544 L52.6019417,36.3495146 C52.1359223,37.3398058 51.9029126,38.5048544 51.9029126,39.6699029 C51.9029126,44.0970874 55.5145631,47.7087379 59.9417476,47.7087379 C64.368932,47.7087379 67.9805825,44.0970874 67.9805825,39.6699029 C67.9805825,37.8640777 67.4563107,36.1747573 66.407767,34.8349515 L69.3786408,30.9320388 L69.3786408,63.4951456 L48.5825243,63.4951456 C47.3009709,63.4951456 46.6601942,64.2524272 46.6601942,65.5339806 L46.6601942,85.0485437 L25.5145631,85.0485437 C24.2330097,85.0485437 23.3009709,85.9223301 23.3009709,87.2038835 L23.3009709,99.0291262 L2.62135922,99.0291262 C1.33980583,99.0291262 0.349514563,100.07767 0.349514563,101.359223 C0.349514563,102.640777 1.39805825,103.68932 2.62135922,103.68932 L25.5728155,103.68932 L48.5242718,103.68932 L48.5825243,103.68932 L71.5339806,103.68932 L94.368932,103.68932 L117.320388,103.68932 C118.601942,103.68932 119.592233,102.640777 119.592233,101.359223 C119.592233,100.07767 118.543689,99.0291262 117.262136,99.0291262 Z M105.728155,16.3106796 C107.650485,16.3106796 109.165049,17.8834951 109.165049,19.7475728 C109.165049,21.6116505 107.650485,23.184466 105.728155,23.184466 C103.805825,23.184466 102.291262,21.6116505 102.291262,19.7475728 C102.291262,19.223301 102.407767,18.6990291 102.640777,18.2330097 L102.640777,18.2330097 L102.640777,18.2330097 C103.223301,17.1262136 104.38835,16.3106796 105.728155,16.3106796 Z M14.038835,74.6796117 C12.1165049,74.6796117 10.6019417,73.1067961 10.6019417,71.2427184 C10.6019417,69.3786408 12.1165049,67.8058252 14.038835,67.8058252 C14.5631068,67.8058252 15.0291262,67.9223301 15.4368932,68.0970874 L15.4368932,68.0970874 L15.4368932,68.0970874 C16.6601942,68.6796117 17.4757282,69.8446602 17.4757282,71.2427184 C17.4757282,73.1650485 15.961165,74.6796117 14.038835,74.6796117 Z M82.8349515,4.89320388 C84.7572816,4.89320388 86.2718447,6.46601942 86.2718447,8.33009709 C86.2718447,8.85436893 86.1553398,9.37864078 85.9223301,9.84466019 L85.9223301,9.84466019 L85.9223301,9.84466019 C85.3398058,10.9514563 84.1747573,11.7669903 82.8349515,11.7669903 C82.0776699,11.7669903 81.3786408,11.5339806 80.7961165,11.1262136 L80.7961165,11.1262136 L80.7961165,11.1262136 C79.9223301,10.4854369 79.3980583,9.49514563 79.3980583,8.33009709 C79.3980583,6.40776699 80.9126214,4.89320388 82.8349515,4.89320388 Z M33.5533981,19.7475728 C33.5533981,17.8252427 35.0679612,16.3106796 36.9902913,16.3106796 C38.9126214,16.3106796 40.4271845,17.8834951 40.4271845,19.7475728 C40.4271845,20.6213592 40.0776699,21.3786408 39.5533981,22.0194175 L39.5533981,22.0194175 L39.5533981,22.0194175 C38.9126214,22.7184466 37.9805825,23.184466 36.9902913,23.184466 C35.0679612,23.2427184 33.5533981,21.6699029 33.5533981,19.7475728 Z M59.8834951,43.1650485 C57.961165,43.1650485 56.4466019,41.6504854 56.4466019,39.7281553 C56.4466019,38.8543689 56.7961165,38.0970874 57.3203883,37.4563107 L57.3203883,37.4563107 L57.3203883,37.4563107 C57.961165,36.7572816 58.8932039,36.2912621 59.9417476,36.2912621 C60.6990291,36.2912621 61.3980583,36.5242718 61.9805825,36.9320388 L61.9805825,36.9320388 L61.9805825,36.9320388 C62.8543689,37.5728155 63.3786408,38.5631068 63.3786408,39.7281553 C63.3203883,41.592233 61.8058252,43.1650485 59.8834951,43.1650485 Z M27.961165,99.0291262 L27.961165,89.7087379 L46.6019417,89.7087379 L46.6019417,99.0291262 L27.961165,99.0291262 Z M51.2621359,67.5728155 L69.3203883,67.5728155 L69.3203883,99.0291262 L51.2621359,99.0291262 L51.2621359,67.5728155 Z M73.9805825,99.0291262 L73.9805825,65.5339806 L73.9805825,32.038835 L92.038835,32.038835 L92.038835,99.0291262 L73.9805825,99.0291262 Z" id="Shape"></path>
        </g>
    </g>
</svg>