<?xml version="1.0" encoding="UTF-8"?>
<svg width="29px" height="24px" viewBox="0 0 29 24" version="1.1" xmlns="http://www.w3.org/2000/svg" xmlns:xlink="http://www.w3.org/1999/xlink">
    <!-- Generator: Sketch 42 (36781) - http://www.bohemiancoding.com/sketch -->
    <title>twitter</title>
    <desc>Created with Sketch.</desc>
    <defs></defs>
    <g stroke="none" stroke-width="1" fill="none" fill-rule="evenodd">
        <path d="M0,20.5 C0.4,20.5 0.9,20.6 1.4,20.6 C4.1,20.6 6.5,19.8 8.6,18.1 C7.3,18.1 6.2,17.7 5.2,16.9 C4.2,16.2 3.5,15.2 3.2,14 C3.6,14.1 4,14.1 4.3,14.1 C4.8,14.1 5.3,14 5.8,13.9 C4.5,13.6 3.4,13 2.5,11.9 C1.6,10.8 1.2,9.6 1.2,8.2 L1.2,8.1 C2,8.6 2.9,8.8 3.8,8.8 C3,8.3 2.4,7.6 1.9,6.7 C1.4,5.9 1.2,4.9 1.2,3.9 C1.2,2.8 1.5,1.9 2,1 C3.4,2.8 5.2,4.2 7.3,5.3 C9.4,6.4 11.6,7 14,7.1 C13.9,6.6 13.9,6.2 13.9,5.8 C13.9,4.2 14.5,2.8 15.6,1.7 C16.7,0.6 18.1,0 19.7,0 C21.4,0 22.8,0.6 23.9,1.8 C25.2,1.5 26.4,1.1 27.6,0.4 C27.2,1.8 26.3,2.8 25.1,3.6 C26.2,3.5 27.3,3.2 28.4,2.7 C27.6,3.9 26.6,4.9 25.5,5.7 L25.5,6.5 C25.5,8.1 25.3,9.6 24.8,11.2 C24.3,12.7 23.7,14.2 22.7,15.7 C21.8,17.1 20.7,18.4 19.4,19.5 C18.1,20.6 16.6,21.5 14.8,22.1 C13,22.8 11.1,23.1 9,23.1 C5.7,23.1 2.7,22.2 0,20.5 L0,20.5 L0,20.5 Z" fill="#FFFFFF"></path>
    </g>
</svg>