<?xml version="1.0" encoding="UTF-8"?>
<svg width="100%" height="100%" viewBox="0 0 193 51" version="1.1" xmlns="http://www.w3.org/2000/svg" xmlns:xlink="http://www.w3.org/1999/xlink">
    <!-- Generator: Sketch 40.3 (33839) - http://www.bohemiancoding.com/sketch -->
    <title>cordiq-logo</title>
    <desc>Created with Sketch.</desc>
    <defs>
        <polygon id="path-1" points="0 50.05 192.225 50.05 192.225 0 0 0"></polygon>
    </defs>
    <g stroke="none" stroke-width="1" fill="none" fill-rule="evenodd">
        <g>
            <g>
                <path d="M77.225,15.825 C75.325,15.825 73.925,16.525 72.925,17.925 C71.925,19.325 71.425,21.325 71.425,23.825 C71.425,29.025 73.425,31.625 77.325,31.625 C78.925,31.625 80.925,31.225 83.325,30.425 L83.325,34.625 C81.425,35.425 79.225,35.825 76.925,35.825 C73.525,35.825 70.925,34.825 69.125,32.725 C67.325,30.625 66.425,27.725 66.425,23.825 C66.425,21.425 66.825,19.225 67.725,17.425 C68.625,15.625 69.925,14.225 71.525,13.225 C73.225,12.225 75.125,11.725 77.325,11.725 C79.625,11.725 81.925,12.225 84.125,13.325 L82.525,17.325 C81.625,16.925 80.725,16.525 79.925,16.225 C78.925,15.925 78.125,15.825 77.225,15.825 L77.225,15.825 Z" fill="#111111"></path>
                <path d="M92.325,23.625 C92.325,26.225 92.825,28.225 93.825,29.525 C94.825,30.825 96.325,31.525 98.225,31.525 C102.225,31.525 104.125,28.925 104.125,23.625 C104.125,18.325 102.125,15.725 98.225,15.725 C96.225,15.725 94.725,16.425 93.725,17.725 C92.825,19.025 92.325,21.025 92.325,23.625 M109.425,23.625 C109.425,27.525 108.425,30.425 106.525,32.525 C104.625,34.625 101.825,35.625 98.225,35.625 C94.625,35.625 91.925,34.625 89.925,32.525 C88.025,30.425 87.025,27.425 87.025,23.525 C87.025,19.625 88.025,16.625 89.925,14.625 C91.825,12.625 94.625,11.525 98.225,11.525 C101.825,11.525 104.525,12.525 106.425,14.625 C108.325,16.725 109.425,19.725 109.425,23.625" fill="#111111"></path>
                <path d="M119.225,22.325 L120.825,22.325 C122.425,22.325 123.525,22.025 124.325,21.525 C125.125,21.025 125.425,20.225 125.425,19.025 C125.425,17.925 125.025,17.125 124.325,16.625 C123.525,16.125 122.425,15.925 120.825,15.925 L119.325,15.925 L119.325,22.325 L119.225,22.325 Z M119.225,26.425 L119.225,35.425 L114.225,35.425 L114.225,12.025 L121.025,12.025 C124.225,12.025 126.525,12.625 128.125,13.725 C129.725,14.825 130.425,16.625 130.425,19.025 C130.425,20.425 130.025,21.625 129.325,22.725 C128.525,23.825 127.525,24.625 126.125,25.225 C129.625,30.525 131.925,33.925 133.025,35.425 L127.525,35.425 L121.925,26.425 L119.225,26.425 L119.225,26.425 Z" fill="#111111"></path>
                <path d="M150.125,23.625 C150.125,18.625 147.925,16.125 143.425,16.125 L140.825,16.125 L140.825,31.325 L142.925,31.325 C147.725,31.325 150.125,28.725 150.125,23.625 M155.325,23.425 C155.325,27.325 154.225,30.225 152.025,32.225 C149.825,34.225 146.625,35.325 142.525,35.325 L135.925,35.325 L135.925,12.025 L143.225,12.025 C147.025,12.025 150.025,13.025 152.125,15.025 C154.225,17.025 155.325,19.825 155.325,23.425" fill="#111111"></path>
                <mask id="mask-2" fill="white">
                    <use xlink:href="#path-1"></use>
                </mask>
                <g></g>
                <polygon fill="#111111" mask="url(#mask-2)" points="160.125 35.425 165.125 35.425 165.125 12.025 160.125 12.025"></polygon>
                <path d="M175.125,23.625 C175.125,26.225 175.625,28.225 176.625,29.525 C177.625,30.825 179.125,31.525 181.025,31.525 C185.025,31.525 186.925,28.925 186.925,23.625 C186.925,18.325 184.925,15.725 181.025,15.725 C179.025,15.725 177.525,16.425 176.525,17.725 C175.625,19.025 175.125,21.025 175.125,23.625 M192.225,23.625 C192.225,26.425 191.725,28.725 190.725,30.525 C189.725,32.425 188.325,33.725 186.425,34.625 L192.025,40.925 L185.625,40.925 L181.325,35.725 L180.925,35.725 C177.325,35.725 174.625,34.725 172.625,32.625 C170.625,30.525 169.725,27.525 169.725,23.625 C169.725,19.725 170.725,16.725 172.625,14.725 C174.525,12.625 177.325,11.625 180.925,11.625 C184.525,11.625 187.225,12.625 189.125,14.725 C191.225,16.825 192.225,19.725 192.225,23.625" fill="#111111" mask="url(#mask-2)"></path>
                <path d="M45.525,28.625 C46.325,29.425 46.325,30.725 45.525,31.525 L31.525,45.525 C30.725,46.325 29.425,46.325 28.625,45.525 L28.425,45.325 L25.725,48.025 L25.925,48.225 C28.225,50.525 31.925,50.525 34.225,48.225 L48.225,34.225 C50.525,31.925 50.525,28.225 48.225,25.925 L28.425,6.125 L25.725,8.825 L45.525,28.625 Z" fill="#111111" mask="url(#mask-2)"></path>
                <path d="M15.725,1.725 L1.725,15.725 C-0.575,18.025 -0.575,21.725 1.725,24.025 L21.525,43.825 L24.225,41.125 L4.325,21.425 C3.525,20.625 3.525,19.325 4.325,18.525 L18.325,4.525 C19.125,3.725 20.425,3.725 21.225,4.525 L21.425,4.725 L24.125,2.025 L23.925,1.825 C21.725,-0.575 17.925,-0.575 15.725,1.725" fill="#111111" mask="url(#mask-2)"></path>
                <path d="M48.225,15.725 L34.225,1.725 C31.925,-0.575 28.225,-0.575 25.925,1.725 L6.025,21.525 L8.725,24.225 L28.525,4.425 C29.325,3.625 30.625,3.625 31.425,4.425 L45.425,18.425 C46.225,19.225 46.225,20.525 45.425,21.325 L45.225,21.525 L47.925,24.225 L48.125,24.025 C50.525,21.825 50.525,18.025 48.225,15.725 L48.225,15.725 Z M21.325,45.625 C20.525,46.425 19.225,46.425 18.425,45.625 L4.425,31.625 C3.625,30.825 3.625,29.525 4.425,28.725 L4.625,28.525 L1.925,25.825 L1.725,26.025 C-0.575,28.325 -0.575,32.025 1.725,34.325 L15.725,48.325 C18.025,50.625 21.725,50.625 24.025,48.325 L43.825,28.525 L41.125,25.825 L21.325,45.625 Z" fill-opacity="0.5" fill="#111111" mask="url(#mask-2)"></path>
            </g>
        </g>
    </g>
</svg>
