<?xml version="1.0" encoding="UTF-8"?>
<svg width="706px" height="1302px" viewBox="0 0 706 1302" version="1.1" xmlns="http://www.w3.org/2000/svg" xmlns:xlink="http://www.w3.org/1999/xlink">
    <!-- Generator: Sketch 40.3 (33839) - http://www.bohemiancoding.com/sketch -->
    <title>nodes</title>
    <desc>Created with Sketch.</desc>
    <defs></defs>
    <g stroke="none" stroke-width="1" fill="none" fill-rule="evenodd">
        <g fill="#BABABA">
            <path d="M37.285,1091.377 C38.086,1091.643 39.003,1091.412 39.568,1090.714 C39.705,1090.542 39.806,1090.35 39.883,1090.155 L83.908,1103.043 C83.793,1103.638 83.928,1104.267 84.316,1104.752 L3.947,1170.802 C3.867,1170.71 3.787,1170.624 3.695,1170.55 C3.591,1170.463 3.477,1170.393 3.363,1170.33 L37.285,1091.377 L37.285,1091.377 Z M84.569,1105.014 C84.593,1105.034 84.61,1105.059 84.635,1105.077 C85.532,1105.803 86.849,1105.668 87.58,1104.771 C87.633,1104.703 87.671,1104.63 87.717,1104.559 L147.149,1140.01 C147.007,1140.36 146.96,1140.733 147.015,1141.101 L4.374,1171.561 C4.327,1171.395 4.248,1171.244 4.162,1171.096 L84.569,1105.014 L84.569,1105.014 Z M87.981,1102.97 L125.493,1090.557 C125.621,1090.817 125.803,1091.057 126.042,1091.252 C126.605,1091.709 127.33,1091.824 127.977,1091.629 L147.98,1139.026 C147.789,1139.145 147.604,1139.293 147.454,1139.479 C147.4,1139.545 147.36,1139.618 147.316,1139.689 L87.883,1104.233 C88.045,1103.827 88.079,1103.388 87.981,1102.97 L87.981,1102.97 Z M128.988,1090.947 C129.359,1090.488 129.503,1089.921 129.438,1089.381 L160.943,1082.82 C161.044,1083.261 161.279,1083.675 161.657,1083.982 C161.844,1084.135 162.053,1084.24 162.269,1084.318 L149.306,1138.72 C148.966,1138.684 148.624,1138.736 148.306,1138.862 L128.31,1091.491 C128.564,1091.363 128.797,1091.182 128.988,1090.947 L128.988,1090.947 Z M164.26,1084.004 L176.847,1097.984 C176.812,1098.018 176.774,1098.045 176.741,1098.086 C176.033,1098.958 176.151,1100.221 176.979,1100.962 L150.114,1138.987 C149.97,1138.905 149.818,1138.833 149.661,1138.787 L162.618,1084.411 C163.191,1084.511 163.79,1084.372 164.26,1084.004 L164.26,1084.004 Z M177.271,1101.177 C177.818,1101.514 178.47,1101.578 179.051,1101.375 L194.22,1135.234 C193.992,1135.362 193.784,1135.527 193.61,1135.742 C193.298,1136.126 193.152,1136.59 193.15,1137.048 L151.143,1140.496 C151.07,1140.002 150.827,1139.535 150.415,1139.191 L177.271,1101.177 L177.271,1101.177 Z M179.873,1100.842 L219.33,1132.43 C218.738,1133.318 218.898,1134.52 219.743,1135.209 C220.136,1135.525 220.607,1135.67 221.076,1135.666 L223.391,1160.085 C222.983,1160.158 222.606,1160.349 222.298,1160.653 L196.913,1138.298 C197.574,1137.403 197.426,1136.146 196.554,1135.436 C195.972,1134.961 195.213,1134.86 194.552,1135.089 L179.383,1101.231 C179.563,1101.13 179.726,1100.997 179.873,1100.842 L179.873,1100.842 Z M180.426,1099.078 L218.004,1089.954 C218.135,1090.208 218.313,1090.442 218.551,1090.634 C218.979,1090.98 219.505,1091.127 220.013,1091.092 L220.839,1131.504 C220.365,1131.556 219.909,1131.778 219.557,1132.147 L180.099,1100.561 C180.4,1100.11 180.508,1099.585 180.426,1099.078 L180.426,1099.078 Z M221.493,1090.328 C222.013,1089.69 222.082,1088.845 221.765,1088.145 L255.443,1060.175 C255.496,1060.23 255.543,1060.288 255.604,1060.335 C255.674,1060.393 255.749,1060.434 255.823,1060.48 L221.795,1131.634 C221.604,1131.562 221.403,1131.513 221.2,1131.499 L220.375,1091.033 C220.801,1090.928 221.197,1090.693 221.493,1090.328 L221.493,1090.328 Z M257.393,1060.741 L275.266,1113.507 C274.946,1113.635 274.65,1113.835 274.416,1114.122 C273.999,1114.637 273.875,1115.292 274.007,1115.892 L222.977,1132.759 C222.848,1132.458 222.654,1132.179 222.381,1131.957 C222.301,1131.891 222.211,1131.842 222.121,1131.788 L256.146,1060.646 C256.547,1060.805 256.979,1060.835 257.393,1060.741 L257.393,1060.741 Z M258.549,1060.031 C258.725,1059.812 258.849,1059.567 258.925,1059.316 L282.699,1064.299 C282.616,1064.986 282.875,1065.701 283.454,1066.17 C284.351,1066.899 285.666,1066.762 286.395,1065.864 C287.048,1065.061 287.002,1063.924 286.342,1063.171 L305.178,1043.552 C305.293,1043.647 305.415,1043.723 305.544,1043.789 L276.671,1113.45 C276.328,1113.34 275.963,1113.33 275.613,1113.401 L257.735,1060.63 C258.041,1060.5 258.325,1060.304 258.549,1060.031 L258.549,1060.031 Z M307.266,1043.857 L331.953,1098.972 C331.729,1099.097 331.52,1099.265 331.347,1099.477 C330.966,1099.947 330.826,1100.524 330.902,1101.08 L278.036,1114.816 C277.919,1114.437 277.693,1114.086 277.361,1113.818 C277.25,1113.725 277.13,1113.647 277.007,1113.584 L305.88,1043.923 C306.337,1044.064 306.824,1044.033 307.266,1043.857 L307.266,1043.857 Z M308.112,1043.243 C308.191,1043.145 308.258,1043.043 308.313,1042.937 L333.36,1054.115 C333.081,1054.922 333.311,1055.851 334.013,1056.419 C334.322,1056.671 334.68,1056.813 335.044,1056.862 L332.898,1098.713 C332.688,1098.723 332.483,1098.757 332.286,1098.826 L307.589,1043.693 C307.779,1043.573 307.964,1043.431 308.112,1043.243 L308.112,1043.243 Z M335.403,1056.88 C335.988,1056.86 336.56,1056.604 336.957,1056.116 C336.997,1056.066 337.022,1056.011 337.059,1055.961 L379.359,1080.231 C379.142,1080.737 379.133,1081.299 379.322,1081.806 L334.832,1099.848 C334.703,1099.595 334.522,1099.364 334.288,1099.173 C333.983,1098.923 333.625,1098.781 333.26,1098.731 L335.403,1056.88 L335.403,1056.88 Z M334.548,976.048 C335.037,976.002 335.507,975.772 335.861,975.389 L349.005,985.673 C348.427,986.559 348.591,987.753 349.431,988.434 C349.64,988.601 349.871,988.722 350.112,988.796 L335.616,1052.73 C335.574,1052.724 335.532,1052.715 335.488,1052.712 L334.548,976.048 L334.548,976.048 Z M376.872,934.637 L389.569,950.985 L380.644,965.417 C379.833,965.123 378.891,965.349 378.316,966.059 C377.973,966.48 377.83,966.993 377.857,967.495 L336.364,973.472 C336.33,973.319 336.278,973.171 336.206,973.028 L336.043,972.769 L376.872,934.637 L376.872,934.637 Z M350.039,899.5 C350.11,899.433 350.182,899.374 350.244,899.3 C350.609,898.855 350.76,898.307 350.713,897.774 L407.984,887.405 L410.556,902.636 L376.895,934.071 L350.039,899.5 L350.039,899.5 Z M349.455,896.053 L362.941,855.328 L402.256,864.553 C402.153,864.985 402.191,865.434 402.359,865.841 L350.272,896.672 C350.182,896.557 350.081,896.448 349.964,896.353 C349.804,896.223 349.634,896.128 349.455,896.053 L349.455,896.053 Z M329.693,847.151 C329.74,846.821 329.708,846.482 329.598,846.167 L370.398,827.761 C370.521,827.98 370.682,828.186 370.887,828.356 C371.045,828.484 371.217,828.579 371.396,828.656 L362.702,854.899 L329.693,847.151 L329.693,847.151 Z M329.451,845.833 C329.327,845.614 329.166,845.411 328.961,845.243 C328.611,844.954 328.197,844.8 327.777,844.772 L326.933,792.539 L338.271,787.539 L370.729,825.287 C370.689,825.328 370.646,825.361 370.605,825.408 C370.122,825.996 370.017,826.762 370.25,827.428 L329.451,845.833 L329.451,845.833 Z M326.656,775.583 C327.013,775.544 327.356,775.411 327.657,775.193 L338.025,787.253 L326.924,792.144 L326.656,775.583 L326.656,775.583 Z M366.952,774.905 C367.077,775.174 367.261,775.424 367.506,775.626 C367.935,775.981 368.465,776.131 368.98,776.096 L372.071,824.658 C371.692,824.685 371.323,824.819 371.003,825.048 L338.619,787.388 L366.952,774.905 L366.952,774.905 Z M373.522,828.378 L402.936,863.44 C402.842,863.522 402.75,863.606 402.669,863.706 C402.541,863.862 402.449,864.032 402.372,864.211 L363.058,854.981 L371.738,828.768 C372.354,828.917 373.013,828.782 373.522,828.378 L373.522,828.378 Z M424.829,759.493 C425.215,759.76 425.662,759.886 426.106,759.869 L432.408,791.447 C432.018,791.561 431.657,791.788 431.38,792.124 C430.844,792.776 430.768,793.653 431.115,794.366 L373.955,825.587 C373.866,825.453 373.76,825.33 373.641,825.215 L424.829,759.493 L424.829,759.493 Z M424.409,756.451 C424.324,756.557 424.25,756.668 424.188,756.781 L393.963,741.583 C394.241,740.887 394.133,740.081 393.648,739.493 L431.754,702.5 C431.775,702.52 431.794,702.544 431.815,702.559 C432.37,703.021 433.093,703.144 433.736,702.956 L442.534,740.556 C442.175,740.676 441.841,740.889 441.583,741.204 C440.959,741.96 440.962,743.024 441.52,743.777 L427.432,756.248 C427.404,756.223 427.386,756.198 427.354,756.169 C426.461,755.433 425.143,755.561 424.409,756.451 L424.409,756.451 Z M404.611,665.135 C404.666,665.082 404.725,665.035 404.773,664.973 C404.833,664.907 404.872,664.831 404.918,664.758 L475.788,699.378 C475.712,699.571 475.663,699.768 475.647,699.969 L435.175,700.457 C435.072,700.032 434.845,699.635 434.481,699.335 C433.849,698.812 433.003,698.733 432.3,699.045 L404.611,665.135 L404.611,665.135 Z M403.781,661.646 L408.964,637.916 C409.65,638.004 410.365,637.75 410.842,637.175 C411.575,636.287 411.451,634.967 410.56,634.23 C409.761,633.571 408.625,633.608 407.866,634.264 L388.404,615.265 C388.501,615.149 388.578,615.026 388.644,614.898 L458.062,644.351 C457.95,644.697 457.938,645.059 458.005,645.408 L405.084,662.844 C404.959,662.539 404.766,662.255 404.491,662.028 C404.278,661.849 404.034,661.725 403.781,661.646 L403.781,661.646 Z M387.814,612.121 L399.201,587.17 C400.01,587.455 400.938,587.231 401.514,586.535 C401.767,586.23 401.91,585.873 401.962,585.507 L443.796,588.007 C443.804,588.213 443.835,588.418 443.902,588.615 L388.566,612.853 C388.45,612.658 388.307,612.477 388.121,612.325 C388.026,612.245 387.92,612.18 387.814,612.121 L387.814,612.121 Z M398.461,583.699 L347.123,541.158 L348.696,538.189 L379.339,543.701 C379.277,544.367 379.533,545.047 380.088,545.505 C380.687,545.997 381.474,546.097 382.151,545.843 L398.93,583.348 C398.758,583.438 398.604,583.56 398.461,583.699 L398.461,583.699 Z M397.917,584.55 L334.107,569.517 C334.208,568.819 333.96,568.087 333.376,567.606 C333.313,567.553 333.243,567.516 333.176,567.472 L346.947,541.487 L398.22,583.968 C398.089,584.149 397.983,584.345 397.917,584.55 L397.917,584.55 Z M397.816,585.03 L321.147,585.329 C321.104,584.838 320.881,584.369 320.502,584.01 L330.895,570.955 C331.774,571.54 332.968,571.384 333.656,570.551 C333.828,570.343 333.949,570.11 334.025,569.872 L397.837,584.9 C397.83,584.944 397.821,584.986 397.816,585.03 L397.816,585.03 Z M318.944,583.438 L313.316,541.901 C313.5,541.861 313.678,541.8 313.846,541.708 L330.752,567.574 C330.636,567.662 330.529,567.767 330.43,567.886 C329.726,568.74 329.817,569.979 330.61,570.728 L320.216,583.783 C319.828,583.528 319.386,583.41 318.944,583.438 L318.944,583.438 Z M318.146,583.648 L276.044,514.001 C276.172,513.909 276.288,513.806 276.394,513.682 L311.069,538.795 C310.548,539.669 310.716,540.813 311.523,541.479 C311.942,541.825 312.456,541.974 312.958,541.95 L318.585,583.49 C318.435,583.528 318.284,583.576 318.146,583.648 L318.146,583.648 Z M314.472,541.202 C314.805,540.794 314.953,540.299 314.942,539.811 L339.392,537.023 C339.454,537.537 339.702,538.032 340.134,538.386 C340.312,538.534 340.509,538.636 340.711,538.716 L332.448,567.173 C331.975,567.082 331.484,567.146 331.056,567.375 L314.149,541.51 C314.266,541.42 314.375,541.315 314.472,541.202 L314.472,541.202 Z M342.982,538.203 L346.663,541.253 L332.854,567.3 C332.836,567.29 332.816,567.283 332.798,567.274 L341.056,538.816 C341.745,538.952 342.474,538.74 342.982,538.203 L342.982,538.203 Z M348.318,538.123 L346.836,540.924 L343.206,537.916 C343.342,537.709 343.438,537.486 343.494,537.256 L348.318,538.123 L348.318,538.123 Z M344.855,495.209 C345.402,495.167 345.933,494.918 346.311,494.46 C346.359,494.4 346.397,494.333 346.439,494.267 L363.446,503.877 L364.826,506.983 L348.497,537.787 L343.548,536.898 C343.587,536.254 343.332,535.603 342.797,535.159 C342.502,534.914 342.16,534.774 341.808,534.717 L344.855,495.209 L344.855,495.209 Z M323.979,415.045 L363.196,503.32 L346.612,493.95 C346.968,493.117 346.764,492.119 346.028,491.511 C345.591,491.15 345.047,490.998 344.521,491.043 L323.979,415.045 L323.979,415.045 Z M322.942,410.753 L314.804,368.675 L353.607,357.498 C353.729,357.922 353.982,358.298 354.326,358.571 L323.988,410.901 C323.652,410.763 323.295,410.711 322.942,410.753 L322.942,410.753 Z M309.491,341.206 C310.096,341.033 310.611,340.592 310.854,339.991 L353.657,356.194 C353.614,356.31 353.576,356.428 353.555,356.558 C353.519,356.753 353.521,356.949 353.54,357.141 L314.734,368.315 L309.491,341.206 L309.491,341.206 Z M281.804,377.801 C281.683,377.486 281.487,377.209 281.236,376.986 L307.827,340.983 C308.042,341.113 308.28,341.215 308.542,341.262 C308.745,341.297 308.941,341.294 309.134,341.275 L314.385,368.415 L281.804,377.801 L281.804,377.801 Z M280.229,376.49 C279.784,376.412 279.347,376.479 278.967,376.66 L252.685,331.512 L260.135,321.607 L306.907,338.661 C306.89,338.717 306.869,338.773 306.859,338.827 C306.725,339.575 307.005,340.297 307.538,340.767 L280.944,376.77 C280.731,376.639 280.491,376.537 280.229,376.49 L280.229,376.49 Z M277.798,378.177 C277.781,378.257 277.783,378.333 277.777,378.411 L218.172,379.625 C218.115,379.11 217.873,378.639 217.494,378.298 L252.451,331.824 L278.651,376.841 C278.217,377.145 277.899,377.614 277.798,378.177 L277.798,378.177 Z M244.155,316.857 C244.448,316.649 244.685,316.366 244.841,316.029 L259.78,321.476 L252.486,331.172 L244.155,316.857 L244.155,316.857 Z M278.975,296.561 C279.217,296.734 279.497,296.861 279.813,296.921 C280.36,297.018 280.894,296.89 281.327,296.607 L307.77,337.456 C307.449,337.667 307.195,337.961 307.027,338.322 L260.362,321.303 L278.975,296.561 L278.975,296.561 Z M321.925,254.815 C322.393,254.861 322.842,254.752 323.221,254.521 L344.16,278.982 C343.879,279.271 343.672,279.646 343.594,280.075 C343.443,280.909 343.809,281.708 344.46,282.163 L309.867,337.345 C309.722,337.273 309.57,337.216 309.408,337.178 L321.925,254.815 L321.925,254.815 Z M320.068,252.37 C320.047,252.504 320.037,252.634 320.037,252.763 L286.245,254.287 C286.145,253.542 285.657,252.896 284.946,252.615 L300.093,201.715 C300.123,201.721 300.151,201.734 300.18,201.738 C300.889,201.869 301.579,201.622 302.049,201.145 L328.107,229.642 C327.854,229.921 327.667,230.269 327.594,230.667 C327.421,231.635 327.942,232.561 328.799,232.948 L322.608,250.715 C322.572,250.708 322.538,250.689 322.503,250.683 C321.365,250.478 320.275,251.232 320.068,252.37 L320.068,252.37 Z M298.881,198.435 L258.149,182.392 C258.172,182.321 258.199,182.252 258.212,182.177 C258.229,182.086 258.229,182 258.234,181.915 L336.978,177.461 C337.008,177.666 337.063,177.863 337.147,178.045 L302.082,198.26 C301.785,197.939 301.393,197.707 300.927,197.619 C300.118,197.476 299.343,197.817 298.881,198.435 L298.881,198.435 Z M257.706,180.414 L295.338,139.333 C295.602,139.553 295.921,139.715 296.285,139.783 C296.939,139.9 297.572,139.694 298.034,139.286 L337.398,175.884 C337.194,176.14 337.045,176.445 336.981,176.789 C336.962,176.895 336.961,176.999 336.956,177.102 L258.222,181.551 C258.169,181.122 257.987,180.728 257.706,180.414 L257.706,180.414 Z M256.525,179.742 C256.251,179.693 255.979,179.702 255.72,179.757 L248.632,156.523 C249.276,156.265 249.779,155.695 249.91,154.962 C250.119,153.822 249.363,152.731 248.226,152.528 C247.207,152.343 246.232,152.931 245.892,153.874 L219.627,146.817 C219.651,146.668 219.66,146.524 219.656,146.38 L294.609,138.127 C294.681,138.485 294.846,138.808 295.077,139.079 L257.442,180.166 C257.184,179.96 256.876,179.806 256.525,179.742 L256.525,179.742 Z M218.886,144.84 L255.294,96.655 C255.514,96.793 255.761,96.893 256.031,96.943 C256.622,97.053 257.198,96.893 257.648,96.563 L295.148,136.273 C294.872,136.563 294.676,136.93 294.601,137.348 C294.573,137.489 294.563,137.633 294.566,137.772 L219.612,146.021 C219.515,145.554 219.254,145.142 218.886,144.84 L218.886,144.84 Z M217.939,144.392 C217.816,144.37 217.694,144.363 217.574,144.363 L215.307,117.028 C216.149,116.883 216.852,116.236 217.014,115.349 C217.085,114.958 217.033,114.576 216.904,114.231 L254.614,95.952 C254.722,96.134 254.851,96.296 255.006,96.436 L218.588,144.634 C218.391,144.524 218.175,144.434 217.939,144.392 L217.939,144.392 Z M216.036,64.139 C216.585,64.088 217.083,63.825 217.435,63.413 L254.675,93.71 C254.516,93.947 254.397,94.216 254.344,94.511 C254.273,94.903 254.324,95.284 254.454,95.628 L216.744,113.909 C216.445,113.408 215.948,113.026 215.326,112.914 C215.265,112.903 215.203,112.904 215.143,112.9 L216.036,64.139 L216.036,64.139 Z M214.781,112.895 C214.259,112.941 213.776,113.174 213.425,113.549 L180.437,89.024 C180.555,88.817 180.648,88.595 180.693,88.347 C180.78,87.876 180.692,87.418 180.488,87.021 L214.2,63.34 C214.505,63.735 214.945,64.026 215.474,64.123 C215.541,64.134 215.608,64.133 215.672,64.137 L214.781,112.895 L214.781,112.895 Z M212.96,114.366 L147.38,102.363 L147.299,99.005 L176.724,88.826 C176.996,89.437 177.554,89.906 178.262,90.033 C179.022,90.17 179.758,89.873 180.226,89.322 L213.2,113.831 C213.095,113.992 213.021,114.176 212.96,114.366 L212.96,114.366 Z M147.386,102.735 L212.886,114.718 C212.856,114.945 212.862,115.163 212.903,115.375 L149.895,133.463 C149.642,132.804 149.065,132.289 148.319,132.152 C148.24,132.137 148.159,132.137 148.081,132.132 L147.386,102.735 L147.386,102.735 Z M146.322,153.591 C146.043,153.187 145.617,152.887 145.109,152.761 L147.795,136.288 C148.847,136.369 149.813,135.648 150.006,134.586 C150.054,134.32 150.048,134.058 149.997,133.813 L213.006,115.719 C213.021,115.761 213.034,115.804 213.052,115.842 L146.322,153.591 L146.322,153.591 Z M144.75,152.702 C144.287,152.666 143.844,152.782 143.472,153.02 L118.251,119.54 C118.394,119.416 118.519,119.275 118.621,119.115 L146.017,133.409 C145.959,133.543 145.914,133.687 145.887,133.837 C145.69,134.927 146.378,135.963 147.434,136.232 L144.75,152.702 L144.75,152.702 Z M142.877,153.593 L72.1,113.425 C72.164,113.285 72.216,113.139 72.247,112.979 L114.775,117.929 C114.744,118.947 115.453,119.861 116.482,120.05 C117.019,120.146 117.537,120.025 117.963,119.759 L143.187,153.244 C143.071,153.35 142.967,153.462 142.877,153.593 L142.877,153.593 Z M138.615,102.537 C138.92,102.954 139.376,103.262 139.926,103.362 C140.153,103.406 140.375,103.396 140.595,103.365 L147.3,132.232 C146.844,132.38 146.444,132.678 146.184,133.088 L118.789,118.792 C118.847,118.656 118.891,118.514 118.918,118.362 C119.012,117.844 118.899,117.341 118.65,116.925 L138.615,102.537 L138.615,102.537 Z M122.931,63.39 C123.39,63.085 123.73,62.606 123.836,62.023 C123.849,61.943 123.848,61.87 123.854,61.792 L143.387,61.859 L146.111,63.896 L146.931,98.749 L142.178,100.395 C141.896,99.812 141.356,99.37 140.673,99.244 C140.298,99.176 139.929,99.222 139.591,99.345 L122.931,63.39 L122.931,63.39 Z M122.149,59.589 C121.588,59.487 121.042,59.624 120.604,59.918 L65.522,3.671 L142.9,61.498 L123.849,61.429 C123.753,60.531 123.086,59.761 122.149,59.589 L122.149,59.589 Z M65.618,3.046 L145.416,34.417 L146.055,61.507 L143.507,61.497 L65.527,3.222 C65.563,3.165 65.588,3.107 65.618,3.046 L65.618,3.046 Z M146.1,63.436 L143.996,61.861 L146.063,61.87 L146.1,63.436 L146.1,63.436 Z M213.891,61.334 C213.846,61.448 213.811,61.565 213.789,61.689 C213.784,61.705 213.788,61.721 213.783,61.737 L146.416,61.507 L145.781,34.562 L213.891,61.334 L213.891,61.334 Z M146.47,63.71 L146.426,61.87 L213.755,62.102 C213.762,62.434 213.854,62.75 214.004,63.033 L180.298,86.713 C179.99,86.311 179.545,86.014 179.008,85.916 C178.267,85.782 177.546,86.06 177.077,86.585 L146.47,63.71 L146.47,63.71 Z M147.022,102.668 L147.716,132.142 C147.696,132.143 147.675,132.147 147.654,132.149 L140.942,103.285 C141.609,103.065 142.142,102.527 142.322,101.811 L147.022,102.668 L147.022,102.668 Z M142.306,100.732 L146.94,99.13 L147.014,102.299 L142.379,101.45 C142.395,101.201 142.372,100.96 142.306,100.732 L142.306,100.732 Z M176.609,88.483 L147.291,98.624 L146.48,64.171 L176.86,86.875 C176.725,87.09 176.624,87.335 176.575,87.602 C176.52,87.906 176.537,88.204 176.609,88.483 L176.609,88.483 Z M239.2,21.992 C239.362,22.067 239.527,22.13 239.713,22.165 C240.006,22.215 240.294,22.205 240.563,22.142 L253.705,62.779 C253.092,63.051 252.62,63.61 252.491,64.32 C252.285,65.46 253.041,66.547 254.177,66.754 C254.249,66.767 254.321,66.766 254.396,66.772 L256.088,92.826 C255.631,92.896 255.218,93.104 254.9,93.429 L217.646,63.117 C217.768,62.912 217.861,62.686 217.905,62.433 C218.059,61.597 217.685,60.788 217.023,60.337 L239.2,21.992 L239.2,21.992 Z M256.253,65.9 L293.088,91.377 C292.975,91.579 292.882,91.796 292.839,92.035 C292.633,93.175 293.391,94.264 294.526,94.468 C295.318,94.612 296.084,94.279 296.546,93.686 L327.969,113.657 C327.926,113.743 327.884,113.824 327.853,113.917 L258.462,95.251 C258.665,94.118 257.912,93.031 256.776,92.826 C256.667,92.805 256.559,92.803 256.451,92.799 L254.758,66.766 C255.364,66.708 255.908,66.39 256.253,65.9 L256.253,65.9 Z M256.609,65.069 C256.665,64.759 256.646,64.457 256.57,64.169 L337.698,41.68 C337.789,42.036 337.969,42.356 338.221,42.62 L296.13,90.727 C295.884,90.545 295.594,90.409 295.272,90.352 C294.501,90.211 293.763,90.519 293.295,91.08 L256.434,65.586 C256.511,65.425 256.576,65.252 256.609,65.069 L256.609,65.069 Z M338.495,42.855 C338.721,43.022 338.98,43.141 339.266,43.208 L329.915,112.539 C329.218,112.504 328.571,112.82 328.162,113.351 L296.743,93.38 C296.839,93.197 296.919,93 296.958,92.783 C297.083,92.095 296.853,91.433 296.405,90.966 L338.495,42.855 L338.495,42.855 Z M340.057,43.232 L351.784,89.91 C351.095,90.151 350.546,90.735 350.407,91.506 C350.291,92.144 350.484,92.76 350.872,93.222 L331.154,113.02 C330.908,112.813 330.611,112.661 330.275,112.585 L339.628,43.252 C339.773,43.259 339.916,43.255 340.057,43.232 L340.057,43.232 Z M354.236,92.983 L379.476,105.809 L345.97,135.341 C345.738,135.157 345.463,135.019 345.156,134.943 L352.18,93.944 C353.015,94.059 353.813,93.667 354.236,92.983 L354.236,92.983 Z M354.454,91.256 L417.94,71.242 C418.005,71.4 418.089,71.548 418.189,71.686 L379.768,105.549 L354.406,92.662 C354.459,92.532 354.499,92.394 354.525,92.252 C354.588,91.907 354.552,91.567 354.454,91.256 L354.454,91.256 Z M418.427,71.959 C418.434,71.966 418.444,71.97 418.454,71.979 L388.866,110.176 L380.117,105.727 L418.427,71.959 L418.427,71.959 Z M419.5,72.505 C419.72,72.544 419.939,72.539 420.153,72.509 L426.934,102.363 L411.44,119.519 C411.207,119.367 410.945,119.254 410.655,119.201 C409.786,119.043 408.948,119.449 408.51,120.157 L389.196,110.343 L418.737,72.203 C418.963,72.348 419.218,72.453 419.5,72.505 L419.5,72.505 Z M421.931,70.817 C421.969,70.604 421.964,70.391 421.936,70.184 L462.729,61.416 C462.822,61.721 462.979,61.995 463.194,62.225 L427.232,102.036 L420.508,72.428 C421.218,72.198 421.788,71.606 421.931,70.817 L421.931,70.817 Z M463.464,62.465 C463.558,62.533 463.656,62.597 463.76,62.653 L435.006,132.337 C434.922,132.312 434.843,132.281 434.755,132.267 C434.531,132.228 434.311,132.232 434.1,132.26 L427.33,102.47 L463.464,62.465 L463.464,62.465 Z M435.706,135.934 L476.867,177.815 C476.683,178.066 476.549,178.351 476.49,178.674 L418.166,175.56 C418.142,174.82 417.724,174.154 417.082,173.802 L433.704,136.296 C433.805,136.332 433.901,136.366 434.009,136.382 C434.639,136.501 435.248,136.31 435.706,135.934 L435.706,135.934 Z M416.754,173.655 C416.654,173.619 416.556,173.585 416.45,173.566 C416.25,173.53 416.057,173.533 415.865,173.552 L410.573,123.325 C411.442,123.203 412.175,122.546 412.341,121.637 C412.471,120.916 412.216,120.216 411.724,119.748 L427.033,102.798 L433.745,132.34 C433.034,132.573 432.465,133.167 432.323,133.955 C432.157,134.859 432.61,135.725 433.374,136.15 L416.754,173.655 L416.754,173.655 Z M427.565,205.563 C426.973,205.844 426.52,206.388 426.396,207.08 C426.316,207.517 426.38,207.944 426.551,208.321 L381.787,235.635 C381.645,235.414 381.463,235.225 381.247,235.069 L415.138,177.486 C415.313,177.575 415.499,177.649 415.703,177.686 C415.979,177.733 416.252,177.726 416.511,177.672 L427.565,205.563 L427.565,205.563 Z M476.695,348.762 C476.576,348.884 476.479,349.025 476.393,349.174 L379.749,310.538 C379.757,310.508 379.771,310.485 379.774,310.453 C379.979,309.316 379.225,308.226 378.088,308.021 C378.001,308.005 377.919,308.008 377.835,308.002 L380.276,238.841 C380.65,238.799 381.001,238.66 381.297,238.436 L476.695,348.762 L476.695,348.762 Z M476.137,349.849 C476.116,349.982 476.106,350.112 476.105,350.241 L390.574,358.548 C390.424,357.715 389.779,357.025 388.898,356.862 C388.676,356.826 388.463,356.83 388.253,356.857 L378.341,312.068 C378.919,311.886 379.403,311.462 379.644,310.888 L476.237,349.504 C476.195,349.613 476.157,349.727 476.137,349.849 L476.137,349.849 Z M439.729,460.772 C439.705,460.787 439.683,460.795 439.659,460.809 L370.06,374.4 L387.033,360.389 C387.326,360.687 387.707,360.899 388.151,360.985 C388.615,361.067 389.067,360.984 389.455,360.788 L439.729,460.772 L439.729,460.772 Z M438.984,461.571 L325.16,413.518 C325.378,412.897 325.288,412.206 324.916,411.658 L369.779,374.631 L439.378,461.043 C439.219,461.194 439.09,461.374 438.984,461.571 L438.984,461.571 Z M344.776,282.339 C344.934,282.414 345.1,282.479 345.279,282.511 C345.984,282.636 346.669,282.394 347.139,281.922 L376.072,308.8 C375.868,309.058 375.719,309.363 375.654,309.705 C375.602,309.999 375.615,310.291 375.682,310.562 L310.755,338.22 C310.613,337.959 310.418,337.722 310.175,337.539 L344.776,282.339 L344.776,282.339 Z M324.189,253.115 C324.231,252.879 324.224,252.647 324.188,252.419 L378.105,237.574 C378.24,237.886 378.449,238.164 378.713,238.381 L346.832,278.723 C346.595,278.564 346.325,278.443 346.026,278.392 C345.446,278.287 344.881,278.433 344.437,278.75 L323.513,254.299 C323.852,254 324.102,253.596 324.189,253.115 L324.189,253.115 Z M329.281,233.103 C330.386,233.301 331.439,232.592 331.688,231.506 L377.95,236.734 C377.95,236.905 377.96,237.07 377.995,237.229 L324.1,252.067 C323.91,251.516 323.503,251.057 322.955,250.821 L329.141,233.062 C329.189,233.074 329.231,233.091 329.281,233.103 L329.281,233.103 Z M346.731,137.344 C346.771,137.112 346.765,136.885 346.733,136.667 L373.278,130.305 L368.915,135.938 C368.735,135.844 368.546,135.768 368.338,135.732 C367.198,135.525 366.112,136.281 365.907,137.415 C365.699,138.557 366.453,139.643 367.592,139.849 C368.259,139.971 368.902,139.751 369.372,139.331 L379.248,147.057 L364.273,159.613 C363.979,159.297 363.59,159.068 363.132,158.985 C362.563,158.883 362.007,159.019 361.568,159.326 L346.058,138.528 C346.396,138.227 346.644,137.827 346.731,137.344 L346.731,137.344 Z M373.631,129.845 L346.647,136.31 C346.558,136.047 346.418,135.804 346.234,135.595 L379.823,105.986 L388.643,110.466 L373.631,129.845 L373.631,129.845 Z M408.222,120.888 C408.181,121.118 408.189,121.341 408.221,121.556 L374.196,129.71 L388.971,110.635 L408.342,120.481 C408.289,120.609 408.248,120.745 408.222,120.888 L408.222,120.888 Z M369.222,136.131 L373.84,130.168 L408.132,121.951 L369.836,136.869 C369.692,136.579 369.484,136.328 369.222,136.131 L369.222,136.131 Z M379.533,146.817 L369.614,139.062 C369.814,138.804 369.963,138.507 370.022,138.164 C370.084,137.833 370.055,137.509 369.964,137.208 L408.435,122.225 C408.477,122.307 408.52,122.391 408.574,122.469 L379.533,146.817 L379.533,146.817 Z M414.548,174.202 L379.826,147.047 L408.808,122.744 C409.099,123.035 409.476,123.242 409.908,123.322 C410.012,123.338 410.11,123.343 410.211,123.345 L415.508,173.619 C415.139,173.724 414.808,173.923 414.548,174.202 L414.548,174.202 Z M379.086,234.916 L355.826,199.752 C356.208,199.447 356.493,199.015 356.588,198.495 C356.645,198.181 356.62,197.868 356.542,197.579 L414.184,176.511 C414.33,176.819 414.553,177.09 414.828,177.296 L380.935,234.891 C380.769,234.812 380.598,234.746 380.408,234.712 C379.939,234.627 379.481,234.712 379.086,234.916 L379.086,234.916 Z M353.42,199.892 C353.637,200.03 353.885,200.129 354.155,200.182 C354.642,200.268 355.119,200.172 355.522,199.951 L378.776,235.107 C378.38,235.408 378.087,235.847 377.984,236.374 L331.733,231.149 C331.768,230.509 331.508,229.905 331.053,229.494 L353.42,199.892 L353.42,199.892 Z M364.716,161.769 L414.019,175.246 C414.019,175.248 414.017,175.25 414.017,175.252 C413.96,175.57 413.981,175.876 414.063,176.172 L356.419,197.236 C356.177,196.719 355.726,196.316 355.155,196.135 L362.522,163.113 C363.487,163.222 364.387,162.662 364.716,161.769 L364.716,161.769 Z M364.5,159.896 L379.543,147.283 L414.32,174.484 C414.24,174.615 414.17,174.754 414.119,174.901 L364.815,161.42 L364.817,161.418 C364.918,160.866 364.785,160.326 364.5,159.896 L364.5,159.896 Z M340.859,176.146 L361.142,162.362 C361.401,162.68 361.753,162.919 362.168,163.043 L354.804,196.053 C353.703,195.907 352.67,196.645 352.469,197.749 C352.335,198.487 352.611,199.201 353.13,199.671 L330.766,229.273 C330.589,229.162 330.396,229.085 330.188,229.029 L338.863,179.239 C339.928,179.329 340.906,178.608 341.098,177.537 C341.188,177.039 341.088,176.556 340.859,176.146 L340.859,176.146 Z M377.47,308.014 C377.035,308.062 376.634,308.248 376.316,308.534 L347.368,281.64 C347.536,281.403 347.657,281.128 347.714,280.822 C347.841,280.113 347.595,279.421 347.114,278.947 L379.013,238.586 C379.211,238.698 379.427,238.787 379.662,238.829 C379.747,238.844 379.829,238.846 379.911,238.849 L377.47,308.014 L377.47,308.014 Z M386.8,360.112 L369.83,374.116 L357.138,358.356 C357.404,358.071 357.598,357.714 357.672,357.301 C357.841,356.38 357.369,355.498 356.581,355.084 L376.916,312.015 C377.054,312.07 377.193,312.113 377.343,312.14 C377.561,312.181 377.776,312.173 377.987,312.146 L387.899,356.935 C387.182,357.164 386.608,357.759 386.464,358.547 C386.361,359.117 386.498,359.669 386.8,360.112 L386.8,360.112 Z M298.718,138.094 C298.731,138.021 298.73,137.946 298.736,137.871 L342.598,137.186 C342.691,138.088 343.359,138.859 344.297,139.032 C344.827,139.128 345.342,139.009 345.769,138.745 L361.291,159.557 C360.994,159.851 360.778,160.229 360.699,160.672 C360.608,161.171 360.711,161.653 360.939,162.061 L340.653,175.847 C340.351,175.475 339.925,175.195 339.414,175.106 C338.75,174.982 338.107,175.198 337.645,175.618 L298.285,139.021 C298.496,138.764 298.653,138.45 298.718,138.094 L298.718,138.094 Z M331.412,113.276 L351.129,93.478 C351.33,93.646 351.565,93.777 351.826,93.862 L344.798,134.892 C343.755,134.83 342.805,135.544 342.611,136.597 C342.598,136.673 342.599,136.748 342.596,136.822 L298.732,137.509 C298.7,137.211 298.607,136.927 298.459,136.673 L328.146,115.87 C328.453,116.276 328.901,116.579 329.442,116.677 C330.58,116.884 331.67,116.13 331.876,114.992 C331.992,114.354 331.799,113.737 331.412,113.276 L331.412,113.276 Z M327.957,115.558 L298.252,136.379 C297.947,136.021 297.529,135.755 297.033,135.665 C296.444,135.555 295.872,135.71 295.425,136.036 L257.919,96.324 C258.113,96.121 258.263,95.875 258.365,95.6 L327.756,114.264 C327.678,114.726 327.762,115.172 327.957,115.558 L327.957,115.558 Z M302.308,198.55 L337.326,178.362 C337.6,178.751 338.014,179.043 338.506,179.176 L329.834,228.967 C329.292,228.919 328.781,229.081 328.375,229.396 L302.278,200.859 C302.439,200.623 302.557,200.352 302.613,200.055 C302.712,199.508 302.585,198.98 302.308,198.55 L302.308,198.55 Z M310.896,338.553 L375.797,310.909 C375.961,311.292 376.238,311.62 376.597,311.847 L356.246,354.942 C356.16,354.916 356.076,354.889 355.985,354.868 C355.101,354.709 354.248,355.135 353.815,355.867 L310.956,339.642 C310.961,339.619 310.973,339.599 310.975,339.575 C311.039,339.218 311.002,338.876 310.896,338.553 L310.896,338.553 Z M324.688,411.377 C324.632,411.322 324.585,411.263 324.523,411.212 C324.455,411.157 324.382,411.115 324.311,411.069 L354.633,358.767 C354.82,358.867 355.021,358.948 355.238,358.989 C355.836,359.095 356.417,358.934 356.866,358.598 L369.552,374.348 L324.688,411.377 L324.688,411.377 Z M378.635,480.933 L365.945,504.874 L363.728,503.622 L324.205,414.659 C324.238,414.637 324.27,414.61 324.303,414.588 C324.324,414.575 324.345,414.562 324.365,414.549 L378.635,480.933 L378.635,480.933 Z M378.885,481.237 L425.202,537.893 C425.107,537.973 425.019,538.054 424.94,538.153 C424.929,538.163 424.923,538.182 424.911,538.194 L366.261,505.052 L378.885,481.237 L378.885,481.237 Z M365.23,506.997 L366.09,505.373 L424.708,538.496 C424.551,538.792 424.478,539.112 424.47,539.433 L383.489,543.605 C383.419,543.105 383.175,542.626 382.754,542.278 C382.173,541.796 381.408,541.689 380.744,541.916 L365.23,506.997 L365.23,506.997 Z M363.978,504.179 L365.774,505.192 L365.042,506.579 L363.978,504.179 L363.978,504.179 Z M380.41,542.063 C380.187,542.186 379.979,542.349 379.809,542.559 C379.612,542.797 379.48,543.066 379.405,543.345 L348.873,537.854 L365.012,507.404 L380.41,542.063 L380.41,542.063 Z M400.766,583.305 C400.285,583.087 399.751,583.058 399.265,583.212 L382.48,545.689 C382.686,545.57 382.875,545.417 383.036,545.223 C383.341,544.856 383.489,544.412 383.505,543.968 L424.493,539.795 C424.563,540.289 424.805,540.756 425.221,541.099 C425.271,541.143 425.331,541.173 425.387,541.209 L400.766,583.305 L400.766,583.305 Z M425.702,541.388 C426.207,541.615 426.77,541.625 427.276,541.438 L444.948,586.081 C444.691,586.204 444.457,586.381 444.267,586.617 C444.014,586.922 443.869,587.279 443.816,587.644 L401.982,585.147 C401.968,584.564 401.72,583.991 401.231,583.588 C401.184,583.548 401.131,583.521 401.079,583.486 L425.702,541.388 L425.702,541.388 Z M428.166,540.817 C428.709,540.161 428.779,539.273 428.424,538.555 L466.518,515.952 C466.623,516.096 466.738,516.233 466.882,516.354 C467.109,516.543 467.366,516.67 467.633,516.75 L459.224,558.625 C458.558,558.562 457.87,558.817 457.411,559.374 C456.676,560.266 456.801,561.584 457.694,562.321 C457.75,562.367 457.813,562.402 457.875,562.443 L446.612,585.996 C446.183,585.836 445.715,585.816 445.283,585.944 L427.604,541.286 C427.813,541.166 428.006,541.011 428.166,540.817 L428.166,540.817 Z M459.922,562.593 L479.594,602.825 C479.396,602.946 479.21,603.093 479.056,603.28 C478.318,604.171 478.446,605.49 479.338,606.226 C479.958,606.738 480.788,606.824 481.482,606.53 L499.127,639.32 C499.047,639.369 498.969,639.422 498.898,639.487 L447.497,589.272 C448.229,588.385 448.102,587.069 447.213,586.335 C447.125,586.264 447.033,586.21 446.94,586.152 L458.193,562.618 C458.75,562.858 459.382,562.847 459.922,562.593 L459.922,562.593 Z M460.641,562.042 C460.839,561.796 460.97,561.521 461.043,561.235 L542.811,581.29 C542.714,581.642 542.715,582.012 542.807,582.363 L482.567,603.746 C482.438,603.466 482.254,603.209 482.002,602.996 C481.398,602.501 480.602,602.405 479.922,602.667 L460.235,562.405 C460.38,562.301 460.52,562.185 460.641,562.042 L460.641,562.042 Z M543.432,583.389 L501.37,639.29 C500.779,638.922 500.062,638.882 499.445,639.146 L481.802,606.359 C481.979,606.248 482.143,606.115 482.282,605.944 C482.729,605.406 482.853,604.714 482.691,604.087 L542.929,582.705 C543.045,582.957 543.211,583.19 543.432,583.389 L543.432,583.389 Z M544.105,583.794 L531.513,630.246 C530.792,630.117 530.027,630.364 529.53,630.966 C529.117,631.467 528.986,632.099 529.099,632.689 L502.215,640.319 C502.103,640.016 501.917,639.737 501.663,639.508 L543.722,583.607 C543.847,583.683 543.975,583.746 544.105,583.794 L544.105,583.794 Z M532.15,634.128 L547.894,657.655 L504.223,667.036 C504.11,666.759 503.941,666.504 503.709,666.291 L529.885,633.961 C530.559,634.47 531.445,634.515 532.15,634.128 L532.15,634.128 Z M532.758,633.632 C532.982,633.362 533.114,633.049 533.184,632.728 L598.35,646.315 C598.33,646.483 598.33,646.651 598.35,646.822 L548.275,657.575 L532.454,633.93 C532.563,633.845 532.667,633.744 532.758,633.632 L532.758,633.632 Z M598.44,647.207 L553.951,666.058 L548.491,657.901 L598.42,647.177 C598.43,647.188 598.43,647.197 598.44,647.207 L598.44,647.207 Z M598.57,647.543 C598.7,647.78 598.87,647.995 599.09,648.174 C599.26,648.32 599.46,648.421 599.66,648.501 L590.98,677.86 L569.07,685.248 C568.943,684.999 568.77,684.776 568.54,684.587 C567.859,684.024 566.933,683.969 566.201,684.37 L554.156,666.366 L598.57,647.543 L598.57,647.543 Z M602.04,647.895 C602.18,647.725 602.27,647.541 602.35,647.347 L642.22,659.643 C642.16,659.954 642.16,660.271 642.23,660.574 L591.4,677.718 L600.01,648.603 C600.74,648.753 601.53,648.509 602.04,647.895 L602.04,647.895 Z M642.52,661.224 L583.36,707.953 C583.3,707.889 583.24,707.824 583.17,707.767 C583,707.623 582.81,707.52 582.61,707.442 L591.27,678.144 L642.35,660.917 C642.4,661.025 642.46,661.126 642.52,661.224 L642.52,661.224 Z M582.26,707.337 C581.524,707.19 580.739,707.43 580.229,708.048 C579.643,708.759 579.613,709.738 580.07,710.479 L547.232,735.063 C547.163,734.986 547.097,734.909 547.013,734.84 C546.856,734.712 546.686,734.62 546.512,734.544 L566.453,688.141 C567.271,688.46 568.232,688.247 568.824,687.534 C569.288,686.969 569.405,686.236 569.207,685.585 L590.85,678.285 L582.26,707.337 L582.26,707.337 Z M597.64,768.092 C597.36,768.219 597.1,768.404 596.89,768.655 L547.535,737.419 C547.878,736.761 547.836,735.977 547.45,735.356 L580.289,710.771 C580.358,710.848 580.427,710.926 580.51,710.996 C581.006,711.402 581.629,711.536 582.21,711.43 L597.64,768.092 L597.64,768.092 Z M545.047,734.466 L528.033,693.796 L565.198,686.775 C565.309,687.168 565.538,687.536 565.877,687.816 C565.956,687.88 566.044,687.929 566.127,687.981 L546.166,734.426 C545.794,734.339 545.405,734.349 545.047,734.466 L545.047,734.466 Z M541.063,768.186 C540.408,768.142 539.746,768.393 539.3,768.936 C539.017,769.278 538.863,769.682 538.828,770.092 L486.426,772.032 C486.409,771.772 486.344,771.518 486.231,771.277 L543.953,737.62 C544.063,737.784 544.187,737.936 544.348,738.068 C544.563,738.247 544.806,738.374 545.057,738.453 L541.063,768.186 L541.063,768.186 Z M486.047,770.966 C485.941,770.818 485.824,770.675 485.678,770.555 C485.308,770.251 484.864,770.103 484.424,770.084 L481.327,728.041 C481.808,727.96 482.269,727.722 482.606,727.315 C482.811,727.065 482.94,726.785 483.013,726.494 L543.596,736.3 C543.572,736.643 543.634,736.987 543.775,737.302 L486.047,770.966 L486.047,770.966 Z M513.896,917.125 C513.734,917.171 513.579,917.249 513.432,917.335 L448.021,836.375 C448.042,836.351 448.067,836.335 448.086,836.313 C448.821,835.423 448.696,834.103 447.805,833.368 C447.737,833.31 447.664,833.269 447.591,833.225 L483.541,774.09 C483.888,774.237 484.264,774.287 484.626,774.236 L513.896,917.125 L513.896,917.125 Z M512.879,917.8 C512.792,917.902 512.722,918.014 512.659,918.126 L433.991,883.545 C434.266,882.746 434.041,881.828 433.349,881.257 C433.177,881.115 432.986,881.015 432.791,880.938 L446.045,837.02 C446.639,837.143 447.269,837.012 447.758,836.627 L513.135,917.545 C513.043,917.624 512.957,917.703 512.879,917.8 L512.879,917.8 Z M404.561,867.105 L407.926,887.048 L350.646,897.417 C350.604,897.266 350.546,897.117 350.471,896.977 L402.53,866.162 C402.646,866.341 402.781,866.509 402.951,866.652 C403.421,867.038 404.004,867.18 404.561,867.105 L404.561,867.105 Z M374.262,827.147 L444.39,834.764 C444.351,835.179 444.433,835.599 444.631,835.972 L405.807,863.616 C405.747,863.551 405.688,863.483 405.615,863.424 C404.922,862.852 403.974,862.807 403.238,863.235 L373.783,828.125 C373.801,828.108 373.818,828.091 373.834,828.074 C374.063,827.796 374.198,827.475 374.262,827.147 L374.262,827.147 Z M433.568,795.465 L445.662,833.06 C445.359,833.186 445.083,833.377 444.856,833.648 C444.668,833.877 444.537,834.135 444.461,834.406 L374.304,826.785 C374.311,826.484 374.251,826.186 374.131,825.907 L431.305,794.677 C431.406,794.82 431.52,794.953 431.662,795.07 C432.213,795.526 432.929,795.648 433.568,795.465 L433.568,795.465 Z M427.975,758.509 L482.27,771.923 C482.229,772.264 482.279,772.605 482.4,772.924 L434.864,792.525 C434.737,792.269 434.559,792.036 434.326,791.843 C433.874,791.465 433.308,791.32 432.764,791.378 L426.466,759.821 C426.908,759.722 427.325,759.493 427.635,759.116 C427.789,758.93 427.897,758.724 427.975,758.509 L427.975,758.509 Z M444.741,743.935 L482.543,771.117 C482.457,771.261 482.385,771.413 482.338,771.567 L428.072,758.158 C428.174,757.585 428.045,756.988 427.683,756.513 L441.763,744.045 C441.797,744.081 441.826,744.119 441.865,744.149 C442.729,744.864 443.993,744.759 444.741,743.935 L444.741,743.935 Z M476.279,701.62 L444.367,740.813 C443.921,740.509 443.393,740.397 442.887,740.474 L434.075,702.821 C434.333,702.692 434.567,702.513 434.762,702.282 C435.113,701.856 435.264,701.332 435.231,700.819 L475.649,700.334 C475.696,700.81 475.914,701.266 476.279,701.62 L476.279,701.62 Z M498.186,640.97 L462.093,644.603 C462.004,644.141 461.77,643.706 461.38,643.383 C460.917,643.003 460.346,642.857 459.796,642.926 L446.5,589.945 C446.767,589.861 447.02,589.721 447.241,589.531 L498.645,639.744 C498.35,640.106 498.203,640.538 498.186,640.97 L498.186,640.97 Z M530.51,675.995 L523.948,678.774 C523.837,678.605 523.71,678.447 523.545,678.312 C522.655,677.577 521.335,677.702 520.6,678.592 C519.863,679.485 519.988,680.802 520.88,681.54 C521.404,681.97 522.073,682.098 522.687,681.958 L527.525,693.526 L508.324,697.156 C508.22,696.737 507.992,696.346 507.634,696.051 C507.188,695.682 506.636,695.529 506.104,695.581 L502.743,669.857 C503.184,669.758 503.598,669.529 503.908,669.153 C504.057,668.974 504.164,668.77 504.244,668.561 L530.51,675.995 L530.51,675.995 Z M531.601,675.925 L553.816,666.511 L565.896,684.567 C565.792,684.655 565.688,684.754 565.593,684.868 C565.448,685.046 565.343,685.246 565.267,685.452 L531.601,675.925 L531.601,675.925 Z M524.123,679.091 L531.065,676.151 L564.997,685.752 L524.296,680.035 C524.313,679.711 524.256,679.39 524.123,679.091 L524.123,679.091 Z M523.032,681.841 C523.33,681.714 523.606,681.525 523.828,681.258 C524.042,680.999 524.175,680.701 524.246,680.394 L565.126,686.136 C565.125,686.232 565.118,686.324 565.131,686.419 L527.892,693.46 L523.032,681.841 L523.032,681.841 Z M507.913,698.997 C507.913,698.997 507.913,698.997 507.913,698.996 C508.271,698.563 508.42,698.031 508.387,697.513 L527.669,693.867 L544.708,734.601 C544.57,734.672 544.444,734.763 544.323,734.865 L507.913,698.997 L507.913,698.997 Z M505.083,699.354 C505.872,699.92 506.931,699.871 507.654,699.252 L544.071,735.117 C544.068,735.121 544.068,735.121 544.067,735.122 C543.862,735.369 543.731,735.65 543.658,735.944 L483.074,726.135 C483.116,725.565 482.921,724.993 482.513,724.557 L505.083,699.354 L505.083,699.354 Z M500.965,669.435 C501.377,669.778 501.886,669.926 502.385,669.905 L505.747,695.649 C505.347,695.757 504.971,695.986 504.688,696.332 C504.365,696.721 504.219,697.193 504.219,697.662 L479.782,699.768 C479.7,699.295 479.464,698.844 479.063,698.514 C478.544,698.085 477.881,697.957 477.269,698.095 L460.831,646.929 C461.142,646.803 461.43,646.609 461.662,646.329 C461.71,646.269 461.745,646.208 461.787,646.144 L500.382,666.994 C500.021,667.828 500.229,668.829 500.965,669.435 L500.965,669.435 Z M479.378,724.648 C478.899,725.229 478.791,725.986 479.017,726.651 L445.032,741.533 C444.933,741.353 444.802,741.19 444.646,741.041 L476.562,701.85 C477.445,702.448 478.651,702.298 479.345,701.46 C479.668,701.07 479.814,700.597 479.814,700.129 L504.249,698.025 C504.316,698.428 504.509,698.807 504.812,699.117 L482.243,724.315 C481.354,723.649 480.093,723.785 479.378,724.648 L479.378,724.648 Z M482.748,770.82 L444.96,743.645 C445.303,743.102 445.37,742.452 445.174,741.869 L479.158,726.983 C479.282,727.21 479.448,727.42 479.659,727.595 C480.044,727.912 480.504,728.06 480.962,728.064 L484.059,770.103 C483.563,770.169 483.095,770.411 482.748,770.82 L482.748,770.82 Z M434.999,792.861 L482.562,773.252 C482.681,773.446 482.826,773.631 483.011,773.784 C483.075,773.836 483.148,773.875 483.219,773.919 L447.269,833.056 C446.865,832.888 446.427,832.854 446.009,832.949 L433.906,795.334 C434.169,795.207 434.41,795.028 434.608,794.789 C435.068,794.231 435.191,793.506 434.999,792.861 L434.999,792.861 Z M504.333,667.383 L548.109,657.984 L553.608,666.202 L531.043,675.767 L504.341,668.21 C504.394,667.937 504.39,667.656 504.333,667.383 L504.333,667.383 Z M502.315,640.666 L529.198,633.04 C529.291,633.285 529.432,633.514 529.615,633.713 L503.423,666.071 C502.543,665.504 501.364,665.661 500.685,666.49 C500.634,666.548 500.599,666.614 500.558,666.676 L461.959,645.827 C462.077,645.55 462.135,645.258 462.131,644.964 L498.199,641.332 C498.268,641.838 498.514,642.322 498.937,642.672 C499.829,643.411 501.146,643.283 501.882,642.391 C502.296,641.891 502.426,641.257 502.315,640.666 L502.315,640.666 Z M388.729,613.177 L444.044,588.95 C444.17,589.177 444.335,589.387 444.548,589.562 C445.014,589.946 445.59,590.088 446.145,590.019 L459.438,642.996 C459.057,643.111 458.706,643.337 458.435,643.667 C458.343,643.777 458.264,643.895 458.196,644.015 L388.782,614.563 C388.926,614.108 388.898,613.62 388.729,613.177 L388.729,613.177 Z M405.193,663.191 L458.107,645.756 C458.231,646.078 458.43,646.377 458.715,646.613 C459.229,647.037 459.881,647.164 460.484,647.033 L476.925,698.208 C476.621,698.333 476.342,698.524 476.118,698.795 C476.05,698.876 475.998,698.965 475.942,699.053 L405.088,664.434 C405.252,664.037 405.285,663.604 405.193,663.191 L405.193,663.191 Z M430.403,881.538 C430.034,881.981 429.884,882.535 429.935,883.064 L408.281,886.985 L404.915,867.029 C405.289,866.913 405.631,866.69 405.899,866.371 C406.494,865.647 406.513,864.649 406.029,863.903 L444.831,836.278 C444.923,836.391 445.022,836.499 445.139,836.594 C445.312,836.736 445.501,836.837 445.697,836.915 L432.442,880.833 C431.707,880.678 430.915,880.919 430.403,881.538 L430.403,881.538 Z M426.88,996.744 C426.854,996.747 426.827,996.743 426.798,996.746 L412.857,914.102 L431.037,884.715 C431.315,884.86 431.615,884.939 431.918,884.954 L426.88,996.744 L426.88,996.744 Z M428.581,1000.169 C428.954,999.721 429.104,999.163 429.05,998.626 L504.848,977.457 L416.906,1017.411 L426.137,1000.749 C426.974,1001.109 427.975,1000.904 428.581,1000.169 L428.581,1000.169 Z M505.242,977.676 C505.274,977.733 505.313,977.784 505.352,977.836 L439.422,1032.662 L415.377,1020.17 L416.61,1017.944 L505.242,977.676 L505.242,977.676 Z M382.852,1079.702 C382.771,1079.609 382.688,1079.521 382.591,1079.441 C382.576,1079.432 382.562,1079.426 382.547,1079.414 L415.198,1020.487 L439.121,1032.913 L382.852,1079.702 L382.852,1079.702 Z M382.243,1079.212 C381.948,1079.057 381.627,1078.987 381.306,1078.985 L376.791,1038.037 C377.293,1037.964 377.768,1037.713 378.113,1037.294 C378.588,1036.706 378.69,1035.942 378.454,1035.278 L413.246,1019.473 L414.877,1020.321 L382.243,1079.212 L382.243,1079.212 Z M337.317,1054.147 L374.7,1037.045 C374.822,1037.251 374.976,1037.441 375.169,1037.597 C375.538,1037.901 375.985,1038.044 376.429,1038.059 L380.945,1079.006 C380.454,1079.085 379.983,1079.329 379.646,1079.747 C379.603,1079.798 379.573,1079.86 379.537,1079.914 L337.236,1055.644 C337.448,1055.165 337.476,1054.629 337.317,1054.147 L337.317,1054.147 Z M378.935,1001.651 L381.914,1003.2 L376.659,1033.888 C375.997,1033.835 375.314,1034.095 374.863,1034.654 C374.373,1035.256 374.282,1036.043 374.541,1036.72 L337.178,1053.81 C337.091,1053.642 336.965,1053.488 336.825,1053.343 L378.935,1001.651 L378.935,1001.651 Z M352.375,988.127 C352.427,988.064 352.464,987.996 352.509,987.927 L378.603,1001.479 L336.551,1053.104 C336.368,1052.974 336.173,1052.874 335.968,1052.806 L350.466,988.876 C351.166,988.971 351.896,988.716 352.375,988.127 L352.375,988.127 Z M352.385,985.503 C352.291,985.387 352.188,985.279 352.068,985.185 C351.209,984.489 349.971,984.589 349.229,985.388 L336.086,975.101 C336.342,974.711 336.452,974.268 336.422,973.826 L377.911,967.853 C377.953,968.037 378.016,968.214 378.105,968.383 L352.385,985.503 L352.385,985.503 Z M383.005,993.889 C382.49,993.952 381.999,994.206 381.647,994.638 C381.502,994.819 381.402,995.017 381.322,995.221 L352.796,987.196 C352.885,986.723 352.817,986.23 352.584,985.805 L378.308,968.682 C378.399,968.799 378.503,968.909 378.621,969.003 C379.029,969.334 379.525,969.477 380.012,969.461 L383.005,993.889 L383.005,993.889 Z M412.47,913.975 L389.774,950.655 L377.139,934.386 L410.633,903.105 L412.47,913.975 L412.47,913.975 Z M410.872,902.337 L408.342,887.342 L430,883.419 C430.07,883.676 430.203,883.912 430.37,884.13 L410.872,902.337 L410.872,902.337 Z M410.949,902.808 L430.632,884.427 C430.653,884.445 430.662,884.467 430.684,884.485 C430.689,884.491 430.697,884.493 430.704,884.498 L412.757,913.506 L410.949,902.808 L410.949,902.808 Z M390.035,950.991 L412.566,914.57 L426.439,996.805 C426.225,996.858 426.019,996.948 425.825,997.07 L390.035,950.991 L390.035,950.991 Z M382.252,1003.377 L412.835,1019.26 L378.307,1034.95 C378.181,1034.725 378.018,1034.52 377.806,1034.35 C377.566,1034.154 377.299,1034.026 377.019,1033.953 L382.252,1003.377 L382.252,1003.377 Z M382.143,997.709 C382.352,997.842 382.574,997.939 382.807,997.992 L381.979,1002.824 L379.166,1001.363 L382.143,997.709 L382.143,997.709 Z M381.854,997.487 L378.837,1001.193 L352.675,987.604 C352.683,987.585 352.69,987.566 352.7,987.544 L381.227,995.567 C381.096,996.257 381.314,996.983 381.854,997.487 L381.854,997.487 Z M416.058,1018.197 L415.054,1020.003 L413.665,1019.282 L416.058,1018.197 L416.058,1018.197 Z M413.256,1019.07 L382.318,1002.999 L383.166,998.044 C383.811,998.076 384.459,997.817 384.896,997.278 C385.138,996.982 385.275,996.637 385.33,996.283 L424.864,999 C424.908,999.548 425.166,1000.077 425.627,1000.453 C425.687,1000.499 425.754,1000.535 425.819,1000.577 L416.35,1017.665 L413.256,1019.07 L413.256,1019.07 Z M381.295,965.788 L381.316,965.758 C381.218,965.695 381.121,965.626 381.024,965.556 L389.832,951.322 L425.536,997.294 C425.461,997.359 425.386,997.426 425.319,997.507 C425.049,997.844 424.898,998.237 424.863,998.637 L385.355,995.925 C385.343,995.33 385.09,994.74 384.59,994.335 C384.228,994.041 383.8,993.893 383.369,993.875 L380.373,969.416 C380.824,969.321 381.251,969.085 381.563,968.697 C382.282,967.813 382.157,966.524 381.295,965.788 L381.295,965.788 Z M405.136,1120.834 C404.993,1120.937 404.856,1121.054 404.738,1121.2 C404.554,1121.43 404.423,1121.687 404.349,1121.956 L362.406,1113.897 C362.463,1113.228 362.199,1112.544 361.641,1112.09 C360.742,1111.364 359.424,1111.498 358.697,1112.395 C358.647,1112.454 358.616,1112.518 358.575,1112.58 L334.928,1101.513 C335.085,1101.08 335.104,1100.615 334.971,1100.184 L379.479,1082.131 C379.602,1082.339 379.757,1082.532 379.952,1082.69 C380.614,1083.23 381.501,1083.293 382.217,1082.929 L405.136,1120.834 L405.136,1120.834 Z M340.439,1197.669 C340.087,1197.574 339.717,1197.579 339.366,1197.672 L317.48,1137.612 C317.759,1137.485 318.016,1137.299 318.223,1137.044 C318.718,1136.437 318.805,1135.639 318.536,1134.959 L358.631,1114.938 C358.738,1115.085 358.854,1115.221 359.002,1115.338 C359.245,1115.538 359.521,1115.668 359.808,1115.739 L340.439,1197.669 L340.439,1197.669 Z M338.345,1198.305 L282.092,1156.715 C282.459,1156.121 282.492,1155.401 282.224,1154.786 L314.861,1136.873 C314.975,1137.044 315.108,1137.211 315.28,1137.35 C315.822,1137.79 316.514,1137.908 317.14,1137.74 L339.027,1197.798 C338.771,1197.919 338.539,1198.085 338.345,1198.305 L338.345,1198.305 Z M337.944,1198.987 L291.389,1186.78 C291.509,1186.059 291.261,1185.297 290.652,1184.805 C290.146,1184.396 289.514,1184.268 288.925,1184.385 L281.074,1157.57 C281.374,1157.451 281.65,1157.265 281.878,1157.009 L338.129,1198.601 C338.053,1198.724 337.993,1198.852 337.944,1198.987 L337.944,1198.987 Z M275.881,1253.746 C275.71,1253.726 275.542,1253.726 275.374,1253.756 L264.2,1203.77 L287.715,1187.752 C287.802,1187.862 287.901,1187.962 288.017,1188.054 C288.289,1188.275 288.602,1188.406 288.923,1188.47 L275.881,1253.746 L275.881,1253.746 Z M274.99,1253.846 L255.765,1209.517 L263.88,1203.991 L275.021,1253.836 C275.009,1253.836 275,1253.836 274.99,1253.846 L274.99,1253.846 Z M262.919,1297.736 C262.609,1297.666 262.291,1297.676 261.986,1297.746 L244.418,1247.056 L273.604,1255.426 C273.465,1256.156 273.71,1256.946 274.332,1257.446 C274.503,1257.586 274.688,1257.686 274.882,1257.756 L262.919,1297.736 L262.919,1297.736 Z M261.338,1298.036 L214.12,1239.276 C214.182,1239.216 214.249,1239.156 214.303,1239.086 C214.448,1238.916 214.545,1238.716 214.625,1238.516 L243.993,1246.936 L261.645,1297.866 C261.537,1297.916 261.438,1297.976 261.338,1298.036 L261.338,1298.036 Z M211.566,1236.006 L186.707,1203.377 C186.782,1203.305 186.859,1203.237 186.928,1203.15 C187.056,1202.996 187.147,1202.823 187.221,1202.648 L233.787,1222.206 C233.474,1223.026 233.697,1223.986 234.416,1224.566 C234.986,1225.026 235.719,1225.136 236.368,1224.936 L243.848,1246.516 L214.723,1238.166 C214.864,1237.436 214.619,1236.646 213.997,1236.146 C213.284,1235.566 212.304,1235.546 211.566,1236.006 L211.566,1236.006 Z M211.055,1236.446 C210.65,1236.946 210.521,1237.576 210.632,1238.156 L154.103,1254.056 C153.972,1253.766 153.786,1253.516 153.529,1253.306 L184.354,1203.699 C185.016,1204.035 185.8,1203.985 186.419,1203.593 L211.276,1236.226 C211.199,1236.296 211.123,1236.366 211.055,1236.446 L211.055,1236.446 Z M185.44,1199.75 C185.097,1199.726 184.753,1199.792 184.438,1199.937 L150.295,1142.491 C150.443,1142.383 150.582,1142.266 150.703,1142.117 C151.004,1141.745 151.15,1141.304 151.163,1140.86 L193.181,1137.412 C193.263,1137.895 193.507,1138.354 193.917,1138.686 C194.165,1138.887 194.448,1139.015 194.74,1139.087 L185.44,1199.75 L185.44,1199.75 Z M223.933,1164.214 L227.738,1183.468 L187.148,1200.846 C187.076,1200.71 186.984,1200.585 186.881,1200.465 L222.444,1163.754 C222.446,1163.754 222.444,1163.756 222.446,1163.754 C222.88,1164.11 223.416,1164.255 223.933,1164.214 L223.933,1164.214 Z M245.867,1186.69 L253.201,1159.929 C253.477,1159.976 253.755,1159.971 254.026,1159.912 L263.795,1203.608 L255.619,1209.177 L245.867,1186.69 L245.867,1186.69 Z M237.359,1224.266 C237.917,1223.576 237.966,1222.646 237.559,1221.926 L255.461,1209.723 L274.654,1253.986 C274.42,1254.106 274.204,1254.286 274.025,1254.506 C273.883,1254.676 273.782,1254.876 273.705,1255.076 L244.273,1246.636 L236.703,1224.796 C236.95,1224.666 237.176,1224.486 237.359,1224.266 L237.359,1224.266 Z M245.715,1187.249 L255.314,1209.384 L237.359,1221.616 C237.268,1221.506 237.169,1221.406 237.056,1221.316 C236.874,1221.176 236.674,1221.066 236.469,1220.996 L245.715,1187.249 L245.715,1187.249 Z M241.54,1179.981 C241.864,1179.994 242.186,1179.935 242.484,1179.801 L245.483,1186.717 L236.166,1220.726 L241.54,1179.981 L241.54,1179.981 Z M228.149,1183.685 L239.724,1178.73 C239.854,1179.029 240.046,1179.303 240.314,1179.521 C240.576,1179.733 240.876,1179.863 241.184,1179.931 L235.782,1220.866 C235.689,1220.856 235.595,1220.856 235.503,1220.866 L228.149,1183.685 L228.149,1183.685 Z M242.953,1176.272 C242.057,1175.543 240.737,1175.678 240.011,1176.577 C239.583,1177.102 239.461,1177.774 239.608,1178.387 L228.079,1183.323 L224.289,1164.154 C224.706,1164.042 225.097,1163.813 225.388,1163.452 C225.75,1163.001 225.9,1162.451 225.844,1161.917 L251.541,1158.344 C251.642,1158.783 251.875,1159.194 252.256,1159.502 C252.435,1159.65 252.641,1159.752 252.846,1159.831 L245.635,1186.157 L242.803,1179.622 C242.968,1179.508 243.125,1179.377 243.259,1179.215 C243.987,1178.317 243.85,1177.001 242.953,1176.272 L242.953,1176.272 Z M187.288,1201.181 L227.811,1183.833 L235.146,1220.936 C234.752,1221.056 234.39,1221.286 234.109,1221.626 C234.046,1221.706 233.996,1221.786 233.944,1221.876 L187.336,1202.302 C187.421,1201.93 187.406,1201.544 187.288,1201.181 L187.288,1201.181 Z M287.512,1187.451 L264.118,1203.39 L254.372,1159.801 C254.649,1159.686 254.902,1159.512 255.113,1159.28 L287.661,1185.182 C287.157,1185.862 287.118,1186.748 287.512,1187.451 L287.512,1187.451 Z M280.024,1153.562 C279.521,1153.632 279.038,1153.88 278.692,1154.309 C277.965,1155.205 278.101,1156.523 278.999,1157.252 C279.501,1157.661 280.135,1157.788 280.725,1157.669 L288.578,1184.489 C288.33,1184.581 288.104,1184.723 287.905,1184.913 L255.332,1158.989 C255.893,1158.107 255.725,1156.927 254.891,1156.252 C254.831,1156.203 254.767,1156.169 254.702,1156.129 L275.23,1117.358 C275.508,1117.476 275.8,1117.531 276.094,1117.524 L280.024,1153.562 L280.024,1153.562 Z M358.444,1114.627 L318.375,1134.634 C318.253,1134.438 318.107,1134.254 317.919,1134.101 C317.02,1133.373 315.702,1133.509 314.974,1134.406 C314.466,1135.032 314.386,1135.862 314.686,1136.553 L282.049,1154.469 C281.994,1154.392 281.941,1154.315 281.879,1154.244 L331.657,1102.428 C332.555,1103.15 333.869,1103.012 334.595,1102.114 C334.668,1102.031 334.722,1101.938 334.775,1101.841 L358.403,1112.899 C358.167,1113.457 358.182,1114.087 358.444,1114.627 L358.444,1114.627 Z M278.112,1115.171 L330.979,1101.433 C331.064,1101.701 331.207,1101.952 331.399,1102.169 L281.617,1153.991 C281.252,1153.703 280.818,1153.558 280.387,1153.544 L276.452,1117.484 C276.913,1117.39 277.348,1117.153 277.667,1116.759 C278.042,1116.295 278.186,1115.719 278.112,1115.171 L278.112,1115.171 Z M223.092,1133.104 L274.117,1116.237 C274.247,1116.55 274.442,1116.838 274.721,1117.065 C274.782,1117.114 274.849,1117.149 274.911,1117.19 L254.385,1155.959 C253.547,1155.605 252.548,1155.817 251.949,1156.557 C251.608,1156.976 251.465,1157.486 251.49,1157.984 L225.774,1161.563 C225.661,1161.16 225.43,1160.79 225.082,1160.506 C224.69,1160.189 224.218,1160.045 223.749,1160.049 L221.438,1135.633 C221.913,1135.547 222.357,1135.307 222.689,1134.904 C223.113,1134.378 223.233,1133.713 223.092,1133.104 L223.092,1133.104 Z M222.185,1163.5 L186.628,1200.213 C186.624,1200.211 186.624,1200.21 186.622,1200.21 C186.373,1200.006 186.09,1199.877 185.799,1199.808 L195.101,1139.146 C195.669,1139.181 196.24,1138.981 196.672,1138.568 L222.063,1160.929 C221.504,1161.722 221.563,1162.782 222.185,1163.5 L222.185,1163.5 Z M183.68,1200.517 C183.5,1200.734 183.379,1200.975 183.302,1201.227 L153.534,1197.482 C153.574,1196.828 153.313,1196.167 152.769,1195.727 C152.425,1195.446 152.018,1195.294 151.607,1195.265 L149.232,1142.88 C149.491,1142.862 149.749,1142.793 149.983,1142.677 L184.124,1200.117 C183.961,1200.227 183.809,1200.354 183.68,1200.517 L183.68,1200.517 Z M327.413,844.775 C326.885,844.828 326.379,845.08 326.015,845.522 C325.963,845.584 325.926,845.653 325.883,845.718 L273.296,817.63 C273.498,817.152 273.518,816.622 273.355,816.14 L326.57,792.695 L327.413,844.775 L327.413,844.775 Z M1.058,1173.799 C1.954,1174.528 3.273,1174.388 4,1173.492 C4.375,1173.033 4.518,1172.461 4.448,1171.916 L147.096,1141.452 C147.215,1141.821 147.438,1142.161 147.759,1142.422 C147.787,1142.446 147.823,1142.462 147.852,1142.483 L83.905,1248.676 C83.053,1248.256 81.989,1248.456 81.362,1249.226 C80.636,1250.126 80.771,1251.446 81.669,1252.176 C82.565,1252.906 83.884,1252.766 84.612,1251.866 C85.341,1250.976 85.204,1249.646 84.306,1248.926 C84.275,1248.906 84.246,1248.886 84.215,1248.866 L148.16,1142.676 C148.191,1142.692 148.226,1142.699 148.262,1142.714 L116.363,1240.306 C115.584,1240.076 114.708,1240.326 114.164,1240.996 C113.436,1241.896 113.571,1243.206 114.47,1243.936 C115.368,1244.666 116.684,1244.526 117.414,1243.636 C118.144,1242.736 118.005,1241.416 117.106,1240.686 C116.979,1240.586 116.844,1240.506 116.704,1240.436 L148.604,1142.829 C148.692,1142.849 148.782,1142.873 148.87,1142.878 L151.245,1195.267 C150.707,1195.322 150.192,1195.578 149.825,1196.031 C149.096,1196.928 149.234,1198.245 150.131,1198.975 C151.027,1199.702 152.347,1199.566 153.073,1198.668 C153.279,1198.418 153.405,1198.132 153.478,1197.841 L183.229,1201.586 C183.147,1202.274 183.404,1202.989 183.985,1203.46 C184.006,1203.476 184.031,1203.485 184.053,1203.503 L153.23,1253.106 C152.356,1252.616 151.235,1252.806 150.584,1253.606 C149.854,1254.506 149.994,1255.826 150.891,1256.556 C151.785,1257.286 153.106,1257.146 153.834,1256.246 C154.271,1255.706 154.391,1255.016 154.227,1254.396 L210.729,1238.506 C210.854,1238.836 211.062,1239.146 211.362,1239.396 C212.09,1239.986 213.094,1239.996 213.84,1239.496 L261.056,1298.266 C260.992,1298.326 260.926,1298.386 260.873,1298.456 C260.145,1299.356 260.282,1300.666 261.175,1301.396 C262.073,1302.126 263.395,1301.986 264.121,1301.096 C264.851,1300.196 264.713,1298.876 263.813,1298.146 C263.644,1298.006 263.46,1297.916 263.266,1297.836 L275.23,1257.866 C275.971,1258.016 276.765,1257.766 277.277,1257.146 C278.004,1256.246 277.869,1254.926 276.969,1254.196 C276.746,1254.016 276.497,1253.886 276.238,1253.816 L289.284,1188.512 C289.908,1188.528 290.535,1188.272 290.958,1187.747 C291.114,1187.559 291.221,1187.349 291.298,1187.132 L337.854,1199.339 C337.729,1200.058 337.98,1200.82 338.587,1201.314 C339.484,1202.042 340.804,1201.907 341.531,1201.008 C342.261,1200.111 342.123,1198.793 341.227,1198.063 C341.088,1197.953 340.936,1197.866 340.784,1197.796 L360.167,1115.798 C360.826,1115.845 361.498,1115.585 361.946,1115.033 C362.139,1114.796 362.267,1114.529 362.34,1114.252 L404.284,1122.314 C404.216,1122.988 404.479,1123.682 405.045,1124.143 C405.941,1124.873 407.259,1124.736 407.99,1123.837 C408.716,1122.942 408.579,1121.625 407.684,1120.895 C407.031,1120.363 406.158,1120.297 405.444,1120.643 L382.523,1082.736 C382.658,1082.635 382.784,1082.52 382.896,1082.385 C383.463,1081.684 383.497,1080.731 383.061,1079.999 L439.469,1033.092 L463.552,1045.6 C463.208,1046.436 463.423,1047.427 464.159,1048.021 C465.056,1048.751 466.375,1048.614 467.103,1047.719 C467.83,1046.82 467.693,1045.502 466.796,1044.772 C465.901,1044.044 464.581,1044.182 463.853,1045.078 C463.802,1045.142 463.765,1045.214 463.721,1045.281 L439.771,1032.84 L505.581,978.117 C505.638,978.17 505.683,978.225 505.742,978.276 C506.643,979.003 507.959,978.867 508.688,977.971 C509.415,977.073 509.279,975.755 508.383,975.026 C507.485,974.298 506.166,974.435 505.438,975.333 C505.036,975.827 504.907,976.452 505.016,977.035 L428.979,998.269 C428.868,997.874 428.643,997.505 428.301,997.224 C428.29,997.212 428.276,997.21 428.264,997.203 L428.264,997.201 C428.127,997.09 427.976,997.005 427.822,996.932 C427.799,996.923 427.773,996.917 427.75,996.904 C427.583,996.835 427.416,996.787 427.243,996.763 L432.281,884.941 C432.79,884.877 433.277,884.63 433.631,884.204 C433.715,884.1 433.783,883.99 433.847,883.879 L512.517,918.459 C512.247,919.256 512.47,920.173 513.159,920.742 C513.386,920.93 513.639,921.06 513.907,921.135 L509.646,936.621 C508.936,936.457 508.162,936.671 507.647,937.257 C506.898,938.108 506.983,939.405 507.836,940.155 C508.686,940.904 509.985,940.818 510.732,939.967 C511.481,939.115 511.396,937.818 510.545,937.07 C510.385,936.93 510.209,936.829 510.022,936.747 L514.298,921.211 C514.712,921.251 515.13,921.165 515.497,920.962 L530.278,934.037 C529.745,934.877 529.882,936 530.651,936.676 C531.504,937.423 532.801,937.339 533.55,936.489 C534.298,935.635 534.214,934.338 533.36,933.59 C532.531,932.861 531.279,932.93 530.523,933.722 L515.835,920.73 C515.933,920.651 516.022,920.562 516.108,920.46 C516.396,920.112 516.548,919.697 516.575,919.277 L562.626,903.209 C562.741,903.48 562.915,903.735 563.152,903.942 C564.004,904.691 565.302,904.606 566.049,903.756 C566.795,902.902 566.712,901.605 565.86,900.858 C565.009,900.11 563.712,900.193 562.965,901.045 C562.519,901.552 562.375,902.217 562.505,902.83 L516.563,918.86 C516.496,918.352 516.25,917.868 515.826,917.516 C515.37,917.138 514.798,916.991 514.254,917.053 L484.982,774.159 C485.349,774.04 485.692,773.822 485.958,773.502 C485.981,773.472 485.999,773.44 486.02,773.41 L591.67,838.24 C591.25,839.092 591.44,840.155 592.21,840.788 C593.1,841.522 594.42,841.397 595.15,840.505 C595.89,839.615 595.76,838.296 594.87,837.561 C593.98,836.823 592.66,836.95 591.93,837.842 C591.9,837.87 591.89,837.901 591.87,837.931 L486.212,773.101 C486.229,773.07 486.238,773.036 486.254,773.003 L583.57,805.712 C583.34,806.492 583.58,807.368 584.25,807.919 C585.14,808.656 586.46,808.528 587.19,807.638 C587.93,806.747 587.8,805.429 586.91,804.692 C586.02,803.956 584.7,804.083 583.97,804.972 C583.86,805.098 583.78,805.235 583.71,805.376 L486.371,772.659 C486.393,772.572 486.413,772.483 486.425,772.393 L538.83,770.457 C538.878,770.995 539.133,771.513 539.58,771.882 C540.472,772.619 541.791,772.493 542.527,771.603 C543.263,770.71 543.136,769.391 542.244,768.656 C541.999,768.451 541.715,768.32 541.419,768.247 L545.416,738.526 C546.101,738.614 546.819,738.363 547.295,737.788 C547.313,737.766 547.321,737.742 547.338,737.719 L596.69,768.956 C596.19,769.824 596.37,770.946 597.16,771.604 C598.06,772.339 599.38,772.215 600.11,771.323 C600.85,770.431 600.72,769.112 599.83,768.377 C599.29,767.937 598.6,767.809 597.98,767.969 L582.56,711.335 C582.9,711.211 583.21,711.008 583.46,710.712 C584.05,709.988 584.07,708.984 583.58,708.236 L642.74,661.513 C642.8,661.574 642.86,661.639 642.93,661.694 C643.78,662.4 645.02,662.307 645.77,661.514 L661.15,676.161 C660.57,677.003 660.7,678.161 661.48,678.852 C662.33,679.599 663.63,679.515 664.38,678.663 C665.13,677.81 665.04,676.514 664.19,675.766 C663.38,675.05 662.16,675.106 661.4,675.853 L646.02,661.198 C646.19,660.932 646.29,660.641 646.33,660.342 L701.57,657.26 C701.67,657.654 701.88,658.022 702.21,658.31 C703.06,659.057 704.36,658.973 705.11,658.123 C705.86,657.27 705.77,655.972 704.92,655.225 C704.07,654.477 702.77,654.561 702.02,655.413 C701.66,655.83 701.49,656.352 701.52,656.866 L646.34,659.941 C646.31,659.439 646.09,658.957 645.71,658.582 L653.68,641.547 C654.47,641.891 655.43,641.712 656.03,641.026 C656.78,640.175 656.7,638.877 655.85,638.13 C654.99,637.381 653.69,637.465 652.95,638.316 C652.2,639.168 652.28,640.466 653.14,641.213 C653.19,641.269 653.26,641.308 653.33,641.353 L645.39,658.331 C644.5,657.764 643.33,657.924 642.65,658.752 C642.51,658.918 642.41,659.104 642.33,659.296 L602.46,646.999 C602.6,646.351 602.41,645.665 601.94,645.157 L628.31,619.058 C629.16,619.693 630.37,619.591 631.07,618.779 C631.82,617.928 631.74,616.63 630.89,615.882 C630.04,615.132 628.74,615.218 627.99,616.069 C627.3,616.862 627.33,618.028 628.01,618.791 L601.66,644.882 C601.29,644.614 600.87,644.482 600.45,644.478 L595.93,628.986 C596.18,628.867 596.42,628.704 596.61,628.481 C597.36,627.629 597.28,626.331 596.42,625.582 C595.57,624.836 594.27,624.918 593.53,625.771 C592.78,626.623 592.86,627.92 593.71,628.669 C594.24,629.128 594.93,629.27 595.56,629.118 L600.04,644.513 C599.57,644.601 599.13,644.836 598.81,645.228 C598.63,645.453 598.5,645.698 598.42,645.956 L533.228,632.366 C533.247,631.741 532.996,631.111 532.477,630.684 C532.289,630.53 532.078,630.423 531.861,630.341 L544.458,583.889 C545.177,584.019 545.943,583.775 546.44,583.172 C546.656,582.907 546.789,582.609 546.859,582.293 L580.508,582.467 C580.537,582.998 580.77,583.516 581.199,583.897 C582.05,584.643 583.35,584.561 584.09,583.706 C584.84,582.856 584.76,581.559 583.91,580.808 C583.06,580.06 581.762,580.146 581.013,580.998 C580.736,581.313 580.577,581.686 580.523,582.07 L546.909,581.895 C546.923,581.39 546.758,580.887 546.416,580.487 L572.883,526.117 C573.633,526.348 574.481,526.141 575.033,525.513 C575.778,524.66 575.694,523.363 574.845,522.614 C573.99,521.868 572.693,521.953 571.946,522.804 C571.199,523.652 571.282,524.953 572.135,525.701 C572.252,525.804 572.382,525.889 572.515,525.961 L546.115,580.199 C545.226,579.498 543.935,579.628 543.211,580.506 C543.096,580.641 543.013,580.794 542.939,580.947 L461.108,560.877 C461.163,560.22 460.905,559.545 460.358,559.095 C460.123,558.9 459.857,558.77 459.58,558.694 L467.99,516.816 C468.665,516.889 469.361,516.635 469.825,516.071 C470.102,515.743 470.254,515.354 470.294,514.957 L524.702,504.718 C524.796,505.128 525.008,505.513 525.345,505.812 C526.197,506.558 527.495,506.476 528.244,505.621 C528.991,504.771 528.91,503.473 528.056,502.727 C527.205,501.979 525.908,502.061 525.159,502.915 C524.802,503.318 524.641,503.823 524.655,504.324 L470.296,514.547 C470.271,514.261 470.183,513.984 470.041,513.729 L488.06,497.314 C488.897,497.855 490.029,497.721 490.706,496.949 C491.455,496.097 491.372,494.799 490.521,494.049 C489.667,493.303 488.368,493.386 487.62,494.24 C486.896,495.065 486.96,496.306 487.742,497.064 L469.812,513.395 C469.73,513.3 469.646,513.208 469.545,513.125 C469.279,512.906 468.97,512.772 468.652,512.703 L471.152,489.85 C471.794,489.921 472.461,489.691 472.921,489.168 C473.668,488.316 473.585,487.02 472.732,486.272 C471.881,485.521 470.584,485.606 469.836,486.46 C469.087,487.312 469.17,488.608 470.024,489.356 C470.244,489.55 470.497,489.687 470.758,489.77 L468.256,512.654 C467.64,512.643 467.021,512.894 466.6,513.407 C466.063,514.055 465.992,514.928 466.332,515.641 L428.232,538.247 C428.132,538.111 428.021,537.985 427.886,537.872 C427.189,537.296 426.236,537.253 425.501,537.684 L379.067,480.889 L391.776,456.91 C392.605,457.263 393.6,457.054 394.203,456.325 C394.938,455.434 394.813,454.114 393.922,453.38 C393.029,452.643 391.713,452.769 390.976,453.66 C390.239,454.551 390.366,455.87 391.256,456.606 C391.319,456.659 391.391,456.697 391.458,456.74 L378.819,480.583 L324.648,414.321 C324.653,414.314 324.661,414.301 324.67,414.291 C324.717,414.249 324.763,414.208 324.804,414.158 C324.884,414.062 324.952,413.956 325.013,413.849 L438.842,461.905 C438.813,461.994 438.782,462.082 438.767,462.177 C438.594,463.126 439.099,464.033 439.927,464.427 L434.83,478.544 C434.103,478.354 433.3,478.561 432.77,479.163 C432.021,480.016 432.107,481.312 432.958,482.06 C433.812,482.808 435.107,482.725 435.855,481.874 C436.603,481.022 436.521,479.725 435.667,478.977 C435.525,478.848 435.368,478.757 435.204,478.678 L440.302,464.562 C440.35,464.578 440.398,464.596 440.45,464.604 C440.895,464.686 441.326,464.618 441.706,464.443 L450.29,475.539 C450.267,475.568 450.24,475.581 450.218,475.609 C449.471,476.46 449.554,477.756 450.406,478.505 C451.258,479.252 452.558,479.167 453.305,478.317 C454.052,477.465 453.966,476.168 453.116,475.421 C452.394,474.783 451.349,474.756 450.591,475.282 L442.052,464.24 C442.473,463.934 442.784,463.473 442.885,462.919 C442.907,462.793 442.913,462.669 442.913,462.549 L497.676,455.682 C497.781,456.031 497.979,456.359 498.274,456.619 C499.127,457.367 500.425,457.282 501.173,456.43 C501.92,455.581 501.836,454.281 500.984,453.537 C500.133,452.786 498.835,452.87 498.087,453.723 C497.693,454.171 497.537,454.741 497.595,455.292 L442.874,462.15 C442.717,461.327 442.072,460.646 441.199,460.489 C440.798,460.415 440.403,460.468 440.053,460.607 L389.768,360.599 C390.18,360.291 390.485,359.84 390.583,359.296 C390.606,359.167 390.615,359.035 390.612,358.905 L476.146,350.603 C476.299,351.43 476.943,352.122 477.826,352.283 C478.438,352.394 479.031,352.218 479.484,351.86 L494.999,372.756 C494.262,373.607 494.35,374.899 495.196,375.642 C496.048,376.391 497.346,376.305 498.094,375.454 C498.841,374.602 498.758,373.305 497.905,372.557 C497.155,371.896 496.052,371.888 495.291,372.48 L479.774,351.583 C480.012,351.311 480.188,350.979 480.255,350.593 C480.276,350.488 480.278,350.38 480.28,350.273 L527.486,345.685 C527.587,346.065 527.799,346.421 528.118,346.699 C528.971,347.45 530.269,347.366 531.016,346.513 C531.762,345.662 531.68,344.363 530.826,343.615 C529.976,342.87 528.677,342.953 527.93,343.803 C527.556,344.231 527.39,344.767 527.423,345.291 L480.254,349.875 C480.157,349.297 479.825,348.784 479.337,348.467 L483.506,336.031 C484.182,336.143 484.896,335.919 485.381,335.366 C486.131,334.514 486.046,333.218 485.193,332.469 C484.344,331.721 483.046,331.805 482.295,332.655 C481.55,333.51 481.634,334.806 482.484,335.556 C482.678,335.722 482.894,335.846 483.12,335.929 L478.979,348.282 C478.849,348.229 478.715,348.189 478.572,348.164 C477.987,348.056 477.418,348.207 476.974,348.529 L381.566,238.194 C381.829,237.911 382.022,237.552 382.097,237.144 C382.103,237.107 382.1,237.073 382.105,237.035 L505.966,241.922 C506.011,242.875 506.701,243.708 507.68,243.882 C508.816,244.089 509.904,243.334 510.11,242.197 C510.318,241.059 509.562,239.969 508.426,239.765 C507.286,239.559 506.199,240.314 505.989,241.449 C505.986,241.488 505.988,241.524 505.983,241.56 L382.123,236.671 C382.122,236.637 382.113,236.601 382.109,236.565 L482.995,217.51 C483.175,218.302 483.811,218.95 484.663,219.105 C485.798,219.312 486.891,218.557 487.096,217.419 C487.298,216.282 486.545,215.191 485.409,214.985 C484.271,214.779 483.182,215.536 482.978,216.671 C482.947,216.833 482.943,216.993 482.951,217.15 L382.045,236.208 C382.02,236.122 381.994,236.034 381.961,235.952 L426.728,208.636 C427.031,209.081 427.506,209.408 428.079,209.512 C429.218,209.721 430.306,208.966 430.514,207.828 C430.719,206.691 429.963,205.602 428.824,205.393 C428.509,205.338 428.197,205.361 427.906,205.438 L416.855,177.559 C417.498,177.303 418.002,176.735 418.135,176 C418.142,175.972 418.137,175.946 418.143,175.919 L476.46,179.034 C476.449,180.037 477.154,180.927 478.174,181.112 C479.312,181.318 480.398,180.562 480.605,179.424 C480.811,178.287 480.056,177.2 478.918,176.993 C478.236,176.87 477.575,177.096 477.105,177.544 L435.966,135.679 C436.2,135.408 436.371,135.077 436.439,134.699 C436.605,133.773 436.134,132.889 435.34,132.477 L464.1,62.789 C464.18,62.817 464.261,62.845 464.347,62.862 C465.484,63.068 466.574,62.313 466.779,61.175 C466.987,60.039 466.231,58.949 465.095,58.743 C463.956,58.537 462.867,59.293 462.662,60.43 C462.623,60.642 462.628,60.855 462.654,61.062 L421.861,69.832 C421.638,69.108 421.038,68.531 420.245,68.384 C419.108,68.177 418.017,68.935 417.812,70.072 C417.763,70.356 417.769,70.634 417.828,70.898 L354.314,90.92 C354.026,90.364 353.503,89.94 352.839,89.82 C352.599,89.775 352.363,89.783 352.135,89.821 L340.408,43.143 C341.098,42.902 341.646,42.316 341.785,41.549 C341.991,40.409 341.237,39.319 340.1,39.114 C338.961,38.907 337.871,39.662 337.667,40.799 C337.636,40.978 337.634,41.149 337.646,41.318 L256.452,63.826 C256.175,63.227 255.623,62.763 254.921,62.635 C254.625,62.582 254.327,62.599 254.05,62.668 L240.91,22.029 C241.533,21.76 242.017,21.196 242.148,20.48 C242.353,19.343 241.6,18.253 240.46,18.047 C239.324,17.84 238.232,18.595 238.028,19.732 C237.879,20.56 238.241,21.357 238.886,21.813 L216.707,60.161 C216.555,60.09 216.395,60.035 216.22,60.003 C215.332,59.842 214.48,60.271 214.049,61.006 L145.775,34.168 L145.136,7.039 C146.03,6.938 146.795,6.273 146.963,5.34 C147.17,4.202 146.415,3.114 145.278,2.908 C144.142,2.702 143.052,3.457 142.844,4.591 C142.639,5.73 143.393,6.819 144.531,7.025 C144.613,7.04 144.693,7.039 144.773,7.045 L145.409,34.024 L65.75,2.71 C65.77,2.638 65.797,2.567 65.812,2.492 C66.017,1.355 65.262,0.268 64.124,0.061 C62.985,-0.144 61.898,0.611 61.693,1.747 C61.484,2.886 62.239,3.973 63.38,4.178 C64.007,4.294 64.615,4.106 65.075,3.73 L120.324,60.149 C120.021,60.444 119.798,60.827 119.717,61.274 C119.51,62.412 120.267,63.501 121.402,63.708 C121.827,63.786 122.248,63.728 122.613,63.566 L139.267,99.494 C138.748,99.789 138.356,100.298 138.241,100.929 C138.157,101.389 138.235,101.836 138.427,102.224 L118.437,116.631 C118.135,116.279 117.723,116.019 117.229,115.931 C116.108,115.728 115.041,116.458 114.813,117.57 L72.285,112.619 C72.316,111.602 71.608,110.688 70.577,110.501 C69.438,110.297 68.349,111.05 68.145,112.186 C67.937,113.324 68.691,114.414 69.83,114.616 C70.665,114.769 71.47,114.401 71.922,113.745 L142.701,153.911 C142.63,154.066 142.571,154.228 142.538,154.405 C142.451,154.88 142.541,155.346 142.751,155.747 L104.337,180.315 C104.032,179.919 103.59,179.625 103.059,179.528 C101.922,179.322 100.832,180.079 100.626,181.215 C100.422,182.353 101.174,183.441 102.311,183.648 C103.449,183.853 104.536,183.098 104.744,181.962 C104.83,181.485 104.74,181.019 104.531,180.623 L142.947,156.05 C142.953,156.058 142.96,156.064 142.965,156.074 L91.817,204.488 C91.539,204.24 91.197,204.059 90.804,203.988 C89.665,203.782 88.577,204.537 88.373,205.673 C88.165,206.809 88.921,207.901 90.058,208.107 C91.195,208.313 92.282,207.558 92.489,206.422 C92.6,205.803 92.425,205.208 92.065,204.753 L143.213,156.338 C143.49,156.584 143.833,156.768 144.223,156.836 C144.528,156.893 144.83,156.872 145.113,156.802 L154.202,182.749 C153.598,183.021 153.131,183.578 153.003,184.28 C152.798,185.419 153.552,186.507 154.689,186.714 C155.827,186.919 156.914,186.164 157.121,185.025 C157.327,183.891 156.573,182.8 155.436,182.597 C155.131,182.537 154.828,182.559 154.545,182.63 L145.457,156.685 C146.063,156.409 146.528,155.854 146.656,155.15 C146.735,154.713 146.672,154.284 146.499,153.91 L213.23,116.157 C213.535,116.604 214.006,116.929 214.58,117.032 C214.705,117.054 214.825,117.064 214.946,117.064 L217.213,144.396 C216.371,144.542 215.668,145.189 215.508,146.079 C215.302,147.214 216.057,148.303 217.192,148.51 C218.213,148.695 219.187,148.105 219.529,147.166 L245.792,154.22 C245.591,155.354 246.344,156.44 247.479,156.648 C247.755,156.695 248.028,156.686 248.288,156.632 L255.373,179.866 C254.729,180.125 254.229,180.694 254.094,181.429 C253.995,181.968 254.12,182.49 254.39,182.917 L248.802,187.401 C248.687,187.303 248.564,187.216 248.426,187.142 C247.408,186.59 246.138,186.973 245.59,187.993 C245.042,189.011 245.424,190.278 246.442,190.826 C247.46,191.372 248.73,190.993 249.277,189.975 C249.69,189.21 249.573,188.299 249.058,187.662 L254.614,183.208 C254.91,183.535 255.312,183.775 255.779,183.86 C255.936,183.888 256.092,183.895 256.243,183.889 L259.447,208.546 C258.856,208.665 258.315,209.027 258.01,209.601 C257.459,210.618 257.842,211.887 258.859,212.433 C259.878,212.982 261.146,212.6 261.693,211.582 C262.242,210.565 261.861,209.297 260.842,208.749 C260.512,208.57 260.157,208.5 259.807,208.508 L256.602,183.844 C257.215,183.713 257.734,183.298 258.021,182.731 L298.688,198.749 C298.604,198.926 298.53,199.107 298.496,199.308 C298.314,200.293 298.859,201.24 299.746,201.61 L284.599,252.515 C284.582,252.511 284.568,252.504 284.553,252.5 C283.414,252.295 282.325,253.049 282.12,254.187 C281.912,255.324 282.669,256.413 283.807,256.623 C284.942,256.827 286.031,256.074 286.237,254.933 C286.258,254.838 286.258,254.745 286.26,254.648 L320.077,253.125 C320.22,253.893 320.788,254.529 321.569,254.75 L309.05,337.124 C308.713,337.099 308.382,337.152 308.087,337.283 L281.61,296.379 C281.93,296.083 282.159,295.692 282.241,295.233 C282.449,294.096 281.695,293.006 280.556,292.799 C279.42,292.595 278.33,293.347 278.125,294.487 C277.998,295.183 278.235,295.857 278.695,296.328 L260.006,321.172 L244.962,315.688 C244.978,315.631 245.001,315.578 245.01,315.518 C245.216,314.382 244.462,313.295 243.324,313.087 C242.187,312.881 241.099,313.636 240.893,314.772 C240.831,315.106 240.862,315.433 240.953,315.738 L220.992,320.927 C220.703,320.045 219.857,319.433 218.887,319.491 C217.736,319.561 216.855,320.55 216.926,321.706 C216.993,322.857 217.985,323.738 219.14,323.669 C220.293,323.598 221.171,322.606 221.102,321.456 C221.099,321.395 221.082,321.341 221.074,321.28 L241.086,316.079 C241.11,316.133 241.142,316.183 241.173,316.236 L207.277,339.655 C206.867,339.206 206.269,338.929 205.613,338.97 C204.461,339.04 203.579,340.031 203.648,341.183 C203.719,342.338 204.71,343.215 205.863,343.146 C207.019,343.079 207.896,342.088 207.827,340.934 C207.804,340.567 207.682,340.231 207.497,339.944 L241.39,316.525 C241.69,316.868 242.097,317.118 242.576,317.206 C243.023,317.287 243.46,317.217 243.842,317.035 L252.252,331.485 L217.205,378.077 C216.988,377.941 216.742,377.839 216.474,377.791 C215.335,377.584 214.248,378.339 214.042,379.476 C213.835,380.613 214.59,381.703 215.728,381.907 C216.864,382.115 217.953,381.362 218.158,380.222 C218.176,380.141 218.173,380.064 218.178,379.987 L277.784,378.773 C277.882,379.67 278.547,380.44 279.483,380.611 C280.621,380.815 281.709,380.058 281.912,378.922 C281.963,378.66 281.954,378.398 281.905,378.146 L314.452,368.776 L322.585,410.823 C322.205,410.939 321.852,411.164 321.576,411.492 C321.477,411.618 321.396,411.747 321.326,411.883 C321.293,411.947 321.272,412.016 321.246,412.081 C321.217,412.156 321.192,412.23 321.171,412.308 C321.152,412.371 321.119,412.426 321.107,412.49 C321.022,412.965 321.108,413.425 321.313,413.818 L251.972,456.916 C251.796,456.679 251.569,456.473 251.292,456.326 C250.277,455.78 249.008,456.161 248.458,457.177 C247.911,458.195 248.293,459.466 249.311,460.01 C250.329,460.56 251.598,460.179 252.146,459.159 C252.481,458.534 252.464,457.814 252.166,457.222 L321.508,414.129 C321.597,414.247 321.701,414.356 321.816,414.453 L300.802,447.429 C299.788,446.899 298.537,447.278 297.993,448.291 C297.445,449.308 297.826,450.577 298.846,451.125 C299.861,451.671 301.131,451.292 301.68,450.273 C302.173,449.356 301.905,448.239 301.104,447.626 L322.11,414.663 C322.112,414.665 322.117,414.665 322.119,414.667 L300.955,463.548 C300.006,463.231 298.942,463.626 298.45,464.537 C297.906,465.555 298.287,466.821 299.303,467.371 C300.321,467.921 301.589,467.537 302.138,466.521 C302.685,465.502 302.306,464.236 301.29,463.689 L322.448,414.823 C322.559,414.864 322.674,414.902 322.795,414.926 C323.061,414.975 323.317,414.955 323.566,414.907 L344.162,491.108 C343.752,491.215 343.371,491.442 343.083,491.794 C342.349,492.686 342.473,494.005 343.364,494.739 C343.698,495.016 344.092,495.169 344.49,495.209 L341.446,534.689 C340.853,534.695 340.261,534.946 339.851,535.44 C339.555,535.798 339.405,536.229 339.381,536.661 L314.898,539.451 C314.807,539.001 314.573,538.57 314.188,538.252 C313.312,537.525 312.021,537.643 311.278,538.501 L276.603,513.388 C277.128,512.515 276.957,511.372 276.146,510.701 C275.257,509.966 273.938,510.091 273.201,510.981 C272.467,511.874 272.591,513.191 273.483,513.928 C274.138,514.469 275.021,514.541 275.736,514.189 L317.838,583.837 C317.697,583.937 317.564,584.05 317.453,584.189 C317.143,584.561 316.994,585.009 316.983,585.46 L271.46,588.111 C271.387,587.614 271.145,587.144 270.728,586.799 C269.837,586.064 268.519,586.191 267.783,587.079 C267.046,587.972 267.172,589.289 268.063,590.026 C268.954,590.762 270.273,590.634 271.008,589.745 C271.316,589.373 271.467,588.92 271.479,588.472 L317.001,585.823 C317.004,585.833 317.006,585.841 317.008,585.851 L248.716,603.073 C248.596,602.723 248.389,602.396 248.079,602.142 C247.187,601.405 245.867,601.531 245.133,602.423 C244.396,603.315 244.522,604.633 245.414,605.368 C246.306,606.106 247.625,605.979 248.36,605.087 C248.757,604.604 248.895,603.998 248.804,603.424 L317.095,586.205 C317.218,586.554 317.426,586.879 317.734,587.132 C317.974,587.332 318.243,587.462 318.527,587.539 L313.769,614.614 C313.105,614.557 312.427,614.814 311.971,615.364 C311.235,616.257 311.359,617.576 312.252,618.312 C313.143,619.046 314.461,618.923 315.197,618.031 C315.936,617.139 315.81,615.821 314.918,615.084 C314.678,614.887 314.406,614.754 314.124,614.681 L318.882,587.603 C319.546,587.659 320.225,587.403 320.679,586.85 C320.963,586.511 321.114,586.103 321.148,585.693 L397.817,585.393 C397.865,585.929 398.12,586.448 398.568,586.817 C398.663,586.897 398.767,586.962 398.873,587.023 L387.486,611.974 C386.68,611.688 385.75,611.909 385.176,612.605 C384.436,613.496 384.563,614.817 385.456,615.551 C386.253,616.211 387.389,616.172 388.15,615.522 L407.609,634.517 C406.879,635.409 407.005,636.723 407.894,637.457 C408.111,637.637 408.354,637.764 408.605,637.84 L403.427,661.574 C402.737,661.483 402.021,661.735 401.544,662.31 C401.198,662.731 401.048,663.249 401.077,663.755 L394.009,664.933 C393.958,664.791 393.894,664.652 393.81,664.521 C393.189,663.544 391.896,663.257 390.922,663.878 C389.945,664.499 389.657,665.791 390.277,666.765 C390.896,667.741 392.191,668.029 393.165,667.407 C393.902,666.943 394.246,666.093 394.105,665.284 L401.129,664.116 C401.23,664.548 401.46,664.951 401.828,665.258 C401.952,665.356 402.081,665.438 402.217,665.506 L392.954,688.584 C392.38,688.396 391.734,688.449 391.186,688.798 C390.211,689.42 389.922,690.71 390.542,691.685 C391.161,692.661 392.455,692.949 393.431,692.331 C394.405,691.71 394.694,690.415 394.075,689.442 C393.874,689.124 393.597,688.89 393.287,688.724 L402.553,665.646 C403.152,665.826 403.807,665.721 404.333,665.366 L431.979,699.224 C431.818,699.334 431.664,699.459 431.534,699.615 C430.897,700.388 430.908,701.479 431.504,702.237 L393.394,739.234 C393.384,739.224 393.373,739.209 393.361,739.2 C392.471,738.463 391.151,738.59 390.416,739.482 C389.68,740.373 389.807,741.69 390.697,742.428 C391.588,743.164 392.906,743.038 393.644,742.147 C393.704,742.071 393.753,741.99 393.803,741.909 L424.045,757.116 C423.796,757.855 423.979,758.688 424.551,759.259 L373.354,824.993 C373.066,824.81 372.756,824.693 372.435,824.661 L369.342,776.037 C369.763,775.934 370.154,775.705 370.452,775.344 C371.186,774.453 371.062,773.136 370.172,772.398 C369.279,771.663 367.96,771.79 367.224,772.679 C366.773,773.224 366.65,773.93 366.823,774.565 L338.372,787.098 L327.931,774.957 C327.972,774.915 328.018,774.88 328.055,774.835 C328.791,773.945 328.665,772.625 327.772,771.889 C327.206,771.419 326.466,771.305 325.813,771.509 L302.162,689.871 C302.454,689.753 302.728,689.578 302.948,689.326 C303.696,688.475 303.612,687.177 302.762,686.429 C301.909,685.682 300.612,685.765 299.863,686.616 C299.115,687.469 299.198,688.765 300.05,689.514 C300.543,689.946 301.184,690.092 301.78,689.981 L325.44,771.668 C325.213,771.792 325.003,771.956 324.827,772.169 C324.609,772.431 324.479,772.728 324.408,773.04 L304.46,767.807 C304.641,766.898 304.199,765.947 303.327,765.527 C302.286,765.023 301.034,765.456 300.532,766.495 C300.027,767.536 300.462,768.789 301.502,769.293 C302.544,769.795 303.796,769.36 304.299,768.321 C304.324,768.267 304.339,768.211 304.358,768.155 L324.358,773.403 C324.356,773.461 324.355,773.522 324.357,773.582 L283.338,777.437 C283.199,776.843 282.813,776.313 282.222,776.027 C281.183,775.521 279.93,775.957 279.426,776.997 C278.922,778.037 279.357,779.289 280.397,779.794 C281.438,780.297 282.688,779.863 283.193,778.823 C283.354,778.49 283.408,778.141 283.39,777.797 L324.402,773.942 C324.5,774.386 324.73,774.803 325.107,775.117 C325.458,775.405 325.873,775.556 326.294,775.586 L326.563,792.3 L273.209,815.807 C273.086,815.582 272.921,815.375 272.714,815.198 C271.819,814.463 270.502,814.59 269.768,815.479 C269.03,816.372 269.157,817.689 270.048,818.425 C270.938,819.163 272.258,819.037 272.993,818.145 C273.042,818.082 273.081,818.013 273.124,817.95 L325.713,846.037 C325.357,846.868 325.565,847.867 326.297,848.467 C327.186,849.202 328.507,849.078 329.243,848.187 C329.412,847.98 329.533,847.748 329.612,847.505 L362.588,855.245 L349.111,895.939 C348.359,895.76 347.541,895.998 347.018,896.633 C346.71,897.003 346.563,897.449 346.545,897.892 L264.985,901.58 C264.946,901.287 264.851,900.999 264.681,900.73 C264.062,899.755 262.768,899.467 261.794,900.089 C260.818,900.71 260.529,902.002 261.15,902.977 C261.77,903.953 263.062,904.24 264.04,903.622 C264.641,903.239 264.977,902.604 265.006,901.942 L346.562,898.254 C346.584,898.404 346.621,898.547 346.674,898.688 L312.217,917.178 C311.595,916.224 310.313,915.943 309.347,916.556 C308.372,917.178 308.084,918.471 308.705,919.444 C309.324,920.421 310.617,920.71 311.592,920.09 C312.473,919.53 312.785,918.427 312.385,917.502 L346.828,899.019 C346.83,899.022 346.833,899.024 346.835,899.028 L304.47,931.313 C303.796,930.575 302.677,930.4 301.804,930.954 C300.827,931.574 300.539,932.867 301.159,933.843 C301.778,934.818 303.073,935.105 304.049,934.484 C305.023,933.867 305.313,932.575 304.693,931.599 L347.041,899.325 C347.119,899.415 347.202,899.502 347.297,899.581 C348.017,900.174 349.007,900.199 349.754,899.721 L376.628,934.322 L335.776,972.471 C335.737,972.428 335.704,972.379 335.659,972.344 C335.284,972.037 334.834,971.892 334.383,971.883 L334.022,971.907 C334.013,971.909 334.003,971.91 333.991,971.913 L333.64,972.002 C333.594,972.018 333.556,972.049 333.51,972.07 L326.288,960.586 C326.442,960.488 326.591,960.375 326.719,960.231 C327.433,959.417 327.351,958.179 326.54,957.465 C325.726,956.752 324.487,956.829 323.773,957.644 C323.059,958.457 323.138,959.695 323.951,960.409 C324.514,960.903 325.276,961.007 325.932,960.764 L333.153,972.249 C332.992,972.358 332.845,972.489 332.716,972.649 C332.52,972.888 332.391,973.163 332.318,973.443 L305.203,968.913 C305.254,968.251 304.993,967.573 304.437,967.122 C303.538,966.394 302.221,966.529 301.494,967.426 C300.764,968.326 300.9,969.642 301.8,970.372 C302.695,971.1 304.014,970.963 304.743,970.066 C304.939,969.828 305.064,969.549 305.139,969.27 L332.255,973.801 C332.205,974.465 332.466,975.14 333.019,975.591 C333.367,975.874 333.773,976.021 334.183,976.05 L335.126,1052.715 C334.589,1052.769 334.074,1053.025 333.706,1053.476 C333.628,1053.573 333.564,1053.677 333.506,1053.785 L308.461,1042.606 C308.739,1041.798 308.51,1040.87 307.811,1040.297 C307.418,1039.983 306.951,1039.839 306.487,1039.841 L301.702,1001.169 C302.114,1001.078 302.5,1000.865 302.798,1000.525 C303.548,999.675 303.464,998.377 302.613,997.628 C301.76,996.882 300.462,996.965 299.713,997.818 C298.966,998.67 299.049,999.966 299.902,1000.714 C300.305,1001.069 300.81,1001.232 301.309,1001.218 L306.09,1039.879 C305.625,1039.97 305.188,1040.21 304.863,1040.604 C304.82,1040.659 304.789,1040.716 304.75,1040.77 L284.703,1027.896 C285.326,1027.046 285.216,1025.853 284.41,1025.145 C283.559,1024.397 282.261,1024.481 281.512,1025.333 C280.764,1026.184 280.849,1027.482 281.702,1028.231 C282.494,1028.926 283.668,1028.893 284.432,1028.199 L304.563,1041.124 C304.264,1041.851 304.39,1042.698 304.919,1043.299 L286.084,1062.919 C285.187,1062.194 283.872,1062.331 283.146,1063.227 C282.971,1063.446 282.846,1063.689 282.769,1063.938 L258.995,1058.96 C259.077,1058.271 258.821,1057.557 258.244,1057.086 C257.816,1056.741 257.298,1056.596 256.794,1056.628 L255.557,1049.572 C255.697,1049.518 255.835,1049.454 255.967,1049.368 C256.939,1048.74 257.218,1047.442 256.587,1046.473 C255.957,1045.504 254.663,1045.226 253.693,1045.856 C252.724,1046.482 252.445,1047.778 253.073,1048.747 C253.546,1049.48 254.4,1049.814 255.204,1049.669 L256.435,1056.684 C256.002,1056.789 255.6,1057.022 255.299,1057.391 C255.199,1057.517 255.117,1057.649 255.051,1057.782 L231.898,1048.713 C232.079,1048.14 232.021,1047.493 231.667,1046.946 C231.039,1045.977 229.744,1045.7 228.773,1046.328 C227.804,1046.956 227.529,1048.251 228.156,1049.222 C228.782,1050.192 230.08,1050.468 231.05,1049.843 C231.363,1049.638 231.596,1049.36 231.759,1049.049 L254.912,1058.121 C254.739,1058.721 254.85,1059.376 255.211,1059.899 L221.584,1087.825 C221.472,1087.665 221.347,1087.511 221.188,1087.385 C220.412,1086.755 219.318,1086.775 218.568,1087.375 L218.307,1087.627 C218.288,1087.65 218.265,1087.667 218.245,1087.691 C217.789,1088.251 217.672,1088.971 217.865,1089.613 L180.341,1098.726 C180.219,1098.368 180.001,1098.036 179.687,1097.782 C178.924,1097.161 177.859,1097.172 177.11,1097.736 L164.521,1083.755 C164.546,1083.727 164.575,1083.707 164.6,1083.676 C165.329,1082.78 165.191,1081.461 164.296,1080.733 C164.19,1080.648 164.077,1080.575 163.966,1080.516 L163.626,1080.375 C162.889,1080.131 162.054,1080.32 161.489,1080.9 L161.255,1081.181 C160.99,1081.569 160.872,1082.017 160.894,1082.46 L129.367,1089.026 C129.252,1088.637 129.02,1088.278 128.682,1088.004 C128.024,1087.469 127.148,1087.403 126.437,1087.755 L126.129,1087.948 C125.988,1088.05 125.853,1088.166 125.739,1088.308 C125.289,1088.865 125.168,1089.581 125.355,1090.22 L87.865,1102.627 C87.736,1102.325 87.544,1102.047 87.271,1101.826 C87.041,1101.638 86.78,1101.509 86.509,1101.436 L86.152,1101.37 C85.735,1101.332 85.315,1101.417 84.944,1101.621 L84.643,1101.821 C84.53,1101.913 84.422,1102.014 84.327,1102.132 C84.189,1102.305 84.087,1102.499 84.013,1102.694 L39.985,1089.805 C40.131,1089.068 39.886,1088.278 39.264,1087.771 C38.816,1087.408 38.265,1087.261 37.731,1087.317 L37.377,1087.387 C36.977,1087.5 36.603,1087.73 36.32,1088.078 C36.021,1088.441 35.875,1088.879 35.857,1089.316 L35.875,1089.68 C35.943,1090.188 36.191,1090.671 36.625,1091.02 C36.729,1091.107 36.836,1091.174 36.95,1091.235 L3.028,1170.19 C2.226,1169.926 1.314,1170.161 0.749,1170.854 C0.022,1171.75 0.159,1173.069 1.058,1173.799 L1.058,1173.799 Z"></path>
        </g>
    </g>
</svg>